<svg xmlns="http://www.w3.org/2000/svg" width="430" height="430" style="width:100%;height:100%;transform:translate3d(0,0,0);content-visibility:visible" viewBox="0 0 430 430"><defs><path id="b" style="display:none"/><path id="d" style="display:none"/><path id="f" style="display:none"/><path id="h" fill="#EBE6EF" d="M0 30c13.807 0 25-13.431 25-30S13.807-30 0-30-25-16.569-25 0s11.193 30 25 30" style="display:block" transform="translate(165 230)"/><path id="l" fill="#514BFD" d="M-56.648-142.509c-25.747 3.086-49.437 10.892-69.495 22.22-20.229 24.718-37.722 59.3-48.459 99.369-5.795 21.626-9.085 42.852-10.076 62.765-.999 20.093.343 38.849 3.817 55.333 20.291 19.248 49.017 34.553 82.785 43.744q3.04.827 6.131 1.587c7.545-12.845 100.979 12.019 121.627 4.519 6.147 14.432 55.129-16.665 62.263-4.519q3.807-.937 7.534-1.974c33.161-9.23 61.373-24.376 81.382-43.357 6.918-32.821 5.382-74.652-6.259-118.098-10.737-40.069-28.23-74.651-48.459-99.369-20.058-11.328-43.748-19.134-69.495-22.22-3.466 5.762-109.571 6.192-113.296 0" style="display:block" transform="translate(265 214.657)"/><path id="n" fill="#514BFD" d="M-56.648-142.509c-25.747 3.086-49.437 10.892-69.495 22.22-20.229 24.718-37.722 59.3-48.459 99.369-5.795 21.626-9.085 42.852-10.076 62.765-.999 20.093.343 38.849 3.817 55.333 20.291 19.248 49.017 34.553 82.785 43.744q3.04.827 6.131 1.587c7.545-12.845 100.979 12.019 121.627 4.519 6.147 14.432 55.129-16.665 62.263-4.519q3.807-.937 7.534-1.974c33.161-9.23 61.373-24.376 81.382-43.357 6.918-32.821 5.382-74.652-6.259-118.098-10.737-40.069-28.23-74.651-48.459-99.369-20.058-11.328-43.748-19.134-69.495-22.22-3.466 5.762-109.571 6.192-113.296 0" style="display:block" transform="translate(265 214.657)"/><path id="p" fill="#514BFD" d="M-56.648-142.509c-25.747 3.086-49.437 10.892-69.495 22.22-20.229 24.718-37.722 59.3-48.459 99.369-5.795 21.626-9.085 42.852-10.076 62.765-.999 20.093.343 38.849 3.817 55.333 20.291 19.248 49.017 34.553 82.785 43.744q3.04.827 6.131 1.587c7.545-12.845 100.979 12.019 121.627 4.519 6.147 14.432 55.129-16.665 62.263-4.519q3.807-.937 7.534-1.974c33.161-9.23 61.373-24.376 81.382-43.357 6.918-32.821 5.382-74.652-6.259-118.098-10.737-40.069-28.23-74.651-48.459-99.369-20.058-11.328-43.748-19.134-69.495-22.22-3.466 5.762-109.571 6.192-113.296 0" style="display:block" transform="translate(265 214.657)"/><path id="r" fill="#4BB3FD" d="M-56.648-142.509c-25.747 3.086-49.437 10.892-69.495 22.22-20.229 24.718-37.722 59.3-48.459 99.369-5.795 21.626-9.085 42.852-10.076 62.765-.999 20.093.343 38.849 3.817 55.333 20.291 19.248 49.017 34.553 82.785 43.744q3.04.827 6.131 1.587c7.545-12.845 100.979 12.019 121.627 4.519 6.147 14.432 55.129-16.665 62.263-4.519q3.807-.937 7.534-1.974c33.161-9.23 61.373-24.376 81.382-43.357 6.918-32.821 5.382-74.652-6.259-118.098-10.737-40.069-28.23-74.651-48.459-99.369-20.058-11.328-43.748-19.134-69.495-22.22-3.466 5.762-109.571 6.192-113.296 0" style="display:block" transform="translate(265 214.657)"/><path id="t" style="display:none"/><path id="C" class="primary" style="display:none"/><path id="B" style="display:none"/><path id="I" class="primary" style="display:none"/><path id="G" style="display:none"/><path id="O" class="quaternary" style="display:none"/><path id="M" style="display:none"/><path id="T" class="quaternary" style="display:none"/><path id="S" style="display:none"/><path id="j" fill="#EBE6EF" d="M305 260c13.807 0 25-13.431 25-30s-11.193-30-25-30-25 13.431-25 30 11.193 30 25 30" style="display:block"/><path id="v" style="display:none"/><path id="x" style="display:none"/><path id="z" style="display:none"/><path id="E" style="display:none"/><path id="K" style="display:none"/><path id="Q" style="display:none"/><mask id="aC" mask-type="alpha"><g filter="url(#a)"><path fill="#fff" d="M0 0h430v430H0z" opacity="0"/><use xmlns:a0="http://www.w3.org/1999/xlink" a0:href="#b"/></g></mask><mask id="aB" mask-type="alpha"><g filter="url(#c)"><path fill="#fff" d="M0 0h430v430H0z" opacity="0"/><use xmlns:a1="http://www.w3.org/1999/xlink" a1:href="#d"/></g></mask><mask id="aA" mask-type="alpha"><g filter="url(#e)"><path fill="#fff" d="M0 0h430v430H0z" opacity="0"/><use xmlns:a2="http://www.w3.org/1999/xlink" a2:href="#f"/></g></mask><mask id="ay" mask-type="alpha"><g filter="url(#g)"><path fill="#fff" d="M0 0h430v430H0z" opacity="0"/><use xmlns:a3="http://www.w3.org/1999/xlink" a3:href="#h"/></g></mask><mask id="ax" mask-type="alpha"><g filter="url(#i)"><path fill="#fff" d="M0 0h430v430H0z" opacity="0"/><use xmlns:a4="http://www.w3.org/1999/xlink" a4:href="#j"/></g></mask><mask id="aw" mask-type="alpha"><g filter="url(#k)"><path fill="#fff" d="M0 0h430v430H0z" opacity="0"/><use xmlns:a5="http://www.w3.org/1999/xlink" a5:href="#l"/></g></mask><mask id="av" mask-type="alpha"><g filter="url(#m)"><path fill="#fff" d="M0 0h430v430H0z" opacity="0"/><use xmlns:a6="http://www.w3.org/1999/xlink" a6:href="#n"/></g></mask><mask id="au" mask-type="alpha"><g filter="url(#o)"><path fill="#fff" d="M0 0h430v430H0z" opacity="0"/><use xmlns:a7="http://www.w3.org/1999/xlink" a7:href="#p"/></g></mask><mask id="at" mask-type="alpha"><g filter="url(#q)"><path fill="#fff" d="M0 0h430v430H0z" opacity="0"/><use xmlns:a8="http://www.w3.org/1999/xlink" a8:href="#r"/></g></mask><mask id="ar" mask-type="alpha"><g filter="url(#s)"><path fill="#fff" d="M0 0h430v430H0z" opacity="0"/><use xmlns:a9="http://www.w3.org/1999/xlink" a9:href="#t"/></g></mask><mask id="aq" mask-type="alpha"><g filter="url(#u)"><path fill="#fff" d="M0 0h430v430H0z" opacity="0"/><use xmlns:a10="http://www.w3.org/1999/xlink" a10:href="#v"/></g></mask><mask id="ap" mask-type="alpha"><g filter="url(#w)"><path fill="#fff" d="M0 0h430v430H0z" opacity="0"/><use xmlns:a11="http://www.w3.org/1999/xlink" a11:href="#x"/></g></mask><mask id="an" mask-type="alpha"><g filter="url(#y)"><path fill="#fff" d="M0 0h430v430H0z" opacity="0"/><use xmlns:a12="http://www.w3.org/1999/xlink" a12:href="#z"/></g></mask><mask id="am" mask-type="alpha"><g filter="url(#A)"><path fill="#fff" d="M0 0h430v430H0z" opacity="0"/><use xmlns:a13="http://www.w3.org/1999/xlink" a13:href="#B"/></g></mask><mask id="al" mask-type="alpha"><use xmlns:a14="http://www.w3.org/1999/xlink" a14:href="#C"/></mask><mask id="aj" mask-type="alpha"><g filter="url(#D)"><path fill="#fff" d="M0 0h430v430H0z" opacity="0"/><use xmlns:a15="http://www.w3.org/1999/xlink" a15:href="#E"/></g></mask><mask id="ai" mask-type="alpha"><g filter="url(#F)"><path fill="#fff" d="M0 0h430v430H0z" opacity="0"/><use xmlns:a16="http://www.w3.org/1999/xlink" a16:href="#G"/></g></mask><mask id="ah" mask-type="alpha"><g filter="url(#H)"><path fill="#fff" d="M0 0h430v430H0z" opacity="0"/><use xmlns:a17="http://www.w3.org/1999/xlink" a17:href="#I"/></g></mask><mask id="ae" mask-type="alpha"><g filter="url(#J)"><path fill="#fff" d="M0 0h430v430H0z" opacity="0"/><use xmlns:a18="http://www.w3.org/1999/xlink" a18:href="#K"/></g></mask><mask id="ad" mask-type="alpha"><g filter="url(#L)"><path fill="#fff" d="M0 0h430v430H0z" opacity="0"/><use xmlns:a19="http://www.w3.org/1999/xlink" a19:href="#M"/></g></mask><mask id="ac" mask-type="alpha"><g filter="url(#N)"><path fill="#fff" d="M0 0h430v430H0z" opacity="0"/><use xmlns:a20="http://www.w3.org/1999/xlink" a20:href="#O"/></g></mask><mask id="aa" mask-type="alpha"><g filter="url(#P)"><path fill="#fff" d="M0 0h430v430H0z" opacity="0"/><use xmlns:a21="http://www.w3.org/1999/xlink" a21:href="#Q"/></g></mask><mask id="Z" mask-type="alpha"><g filter="url(#R)"><path fill="#fff" d="M0 0h430v430H0z" opacity="0"/><use xmlns:a22="http://www.w3.org/1999/xlink" a22:href="#S"/></g></mask><mask id="X" mask-type="alpha"><use xmlns:a23="http://www.w3.org/1999/xlink" a23:href="#T"/></mask><filter id="a" width="100%" height="100%" x="0%" y="0%" filterUnits="objectBoundingBox"><feComponentTransfer in="SourceGraphic"><feFuncA tableValues="1.0 0.0" type="table"/></feComponentTransfer></filter><filter id="c" width="100%" height="100%" x="0%" y="0%" filterUnits="objectBoundingBox"><feComponentTransfer in="SourceGraphic"><feFuncA tableValues="1.0 0.0" type="table"/></feComponentTransfer></filter><filter id="e" width="100%" height="100%" x="0%" y="0%" filterUnits="objectBoundingBox"><feComponentTransfer in="SourceGraphic"><feFuncA tableValues="1.0 0.0" type="table"/></feComponentTransfer></filter><filter id="g" width="100%" height="100%" x="0%" y="0%" filterUnits="objectBoundingBox"><feComponentTransfer in="SourceGraphic"><feFuncA tableValues="1.0 0.0" type="table"/></feComponentTransfer></filter><filter id="i" width="100%" height="100%" x="0%" y="0%" filterUnits="objectBoundingBox"><feComponentTransfer in="SourceGraphic"><feFuncA tableValues="1.0 0.0" type="table"/></feComponentTransfer></filter><filter id="k" width="100%" height="100%" x="0%" y="0%" filterUnits="objectBoundingBox"><feComponentTransfer in="SourceGraphic"><feFuncA tableValues="1.0 0.0" type="table"/></feComponentTransfer></filter><filter id="m" width="100%" height="100%" x="0%" y="0%" filterUnits="objectBoundingBox"><feComponentTransfer in="SourceGraphic"><feFuncA tableValues="1.0 0.0" type="table"/></feComponentTransfer></filter><filter id="o" width="100%" height="100%" x="0%" y="0%" filterUnits="objectBoundingBox"><feComponentTransfer in="SourceGraphic"><feFuncA tableValues="1.0 0.0" type="table"/></feComponentTransfer></filter><filter id="q" width="100%" height="100%" x="0%" y="0%" filterUnits="objectBoundingBox"><feComponentTransfer in="SourceGraphic"><feFuncA tableValues="1.0 0.0" type="table"/></feComponentTransfer></filter><filter id="s" width="100%" height="100%" x="0%" y="0%" filterUnits="objectBoundingBox"><feComponentTransfer in="SourceGraphic"><feFuncA tableValues="1.0 0.0" type="table"/></feComponentTransfer></filter><filter id="u" width="100%" height="100%" x="0%" y="0%" filterUnits="objectBoundingBox"><feComponentTransfer in="SourceGraphic"><feFuncA tableValues="1.0 0.0" type="table"/></feComponentTransfer></filter><filter id="w" width="100%" height="100%" x="0%" y="0%" filterUnits="objectBoundingBox"><feComponentTransfer in="SourceGraphic"><feFuncA tableValues="1.0 0.0" type="table"/></feComponentTransfer></filter><filter id="y" width="100%" height="100%" x="0%" y="0%" filterUnits="objectBoundingBox"><feComponentTransfer in="SourceGraphic"><feFuncA tableValues="1.0 0.0" type="table"/></feComponentTransfer></filter><filter id="A" width="100%" height="100%" x="0%" y="0%" filterUnits="objectBoundingBox"><feComponentTransfer in="SourceGraphic"><feFuncA tableValues="1.0 0.0" type="table"/></feComponentTransfer></filter><filter id="D" width="100%" height="100%" x="0%" y="0%" filterUnits="objectBoundingBox"><feComponentTransfer in="SourceGraphic"><feFuncA tableValues="1.0 0.0" type="table"/></feComponentTransfer></filter><filter id="F" width="100%" height="100%" x="0%" y="0%" filterUnits="objectBoundingBox"><feComponentTransfer in="SourceGraphic"><feFuncA tableValues="1.0 0.0" type="table"/></feComponentTransfer></filter><filter id="H" width="100%" height="100%" x="0%" y="0%" filterUnits="objectBoundingBox"><feComponentTransfer in="SourceGraphic"><feFuncA tableValues="1.0 0.0" type="table"/></feComponentTransfer></filter><filter id="J" width="100%" height="100%" x="0%" y="0%" filterUnits="objectBoundingBox"><feComponentTransfer in="SourceGraphic"><feFuncA tableValues="1.0 0.0" type="table"/></feComponentTransfer></filter><filter id="L" width="100%" height="100%" x="0%" y="0%" filterUnits="objectBoundingBox"><feComponentTransfer in="SourceGraphic"><feFuncA tableValues="1.0 0.0" type="table"/></feComponentTransfer></filter><filter id="N" width="100%" height="100%" x="0%" y="0%" filterUnits="objectBoundingBox"><feComponentTransfer in="SourceGraphic"><feFuncA tableValues="1.0 0.0" type="table"/></feComponentTransfer></filter><filter id="P" width="100%" height="100%" x="0%" y="0%" filterUnits="objectBoundingBox"><feComponentTransfer in="SourceGraphic"><feFuncA tableValues="1.0 0.0" type="table"/></feComponentTransfer></filter><filter id="R" width="100%" height="100%" x="0%" y="0%" filterUnits="objectBoundingBox"><feComponentTransfer in="SourceGraphic"><feFuncA tableValues="1.0 0.0" type="table"/></feComponentTransfer></filter><clipPath id="U"><path d="M0 0h430v430H0z"/></clipPath><clipPath id="az"><path d="M0 0h430v430H0z"/></clipPath><clipPath id="as"><path d="M0 0h430v430H0z"/></clipPath><clipPath id="ao"><path d="M0 0h430v430H0z"/></clipPath><clipPath id="af"><path d="M0 0h430v430H0z"/></clipPath><clipPath id="ak"><path d="M0 0h430v430H0z"/></clipPath><clipPath id="ag"><path d="M0 0h430v430H0z"/></clipPath><clipPath id="V"><path d="M0 0h430v430H0z"/></clipPath><clipPath id="ab"><path d="M0 0h430v430H0z"/></clipPath><clipPath id="W"><path d="M0 0h430v430H0z"/></clipPath></defs><g clip-path="url(#U)"><g clip-path="url(#V)" style="display:none"><g style="display:none"><path class="secondary"/><path class="secondary" style="mix-blend-mode:multiply"/></g><path fill="none" class="primary" style="display:none"/><g clip-path="url(#W)" mask="url(#X)" style="display:none"><path class="tertiary" style="display:none"/><g mask="url(#Z)" style="mix-blend-mode:multiply;display:none"><path class="tertiary"/></g><g fill="none" style="display:none"><path class="primary"/><path class="primary"/><path class="primary"/><path class="primary"/></g><path class="secondary" style="display:none"/><g mask="url(#aa)" style="mix-blend-mode:multiply;display:none"><path class="secondary"/></g><g fill="none" style="display:none"><path class="primary"/><path class="primary"/></g></g><g clip-path="url(#ab)" mask="url(#ac)" style="display:none"><path class="secondary" style="display:none"/><g mask="url(#ad)" style="mix-blend-mode:multiply;display:none"><path class="secondary"/></g><g fill="none" style="display:none"><path class="primary"/><path class="primary"/><path class="primary"/><path class="primary"/></g><path class="tertiary" style="display:none"/><g mask="url(#ae)" style="mix-blend-mode:multiply;display:none"><path class="tertiary"/></g><g fill="none" style="display:none"><path class="primary"/><path class="primary"/></g></g></g><g clip-path="url(#af)" style="display:none"><g style="display:none"><path class="secondary"/><path class="secondary" style="mix-blend-mode:multiply"/></g><path fill="none" class="primary" style="display:none"/><g clip-path="url(#ag)" mask="url(#ah)" style="display:none"><path class="secondary" style="display:none"/><g mask="url(#ai)" style="mix-blend-mode:multiply;display:none"><path class="secondary"/></g><g fill="none" style="display:none"><path class="primary"/><path class="primary"/><path class="primary"/><path class="primary"/></g><path class="tertiary" style="display:none"/><g mask="url(#aj)" style="mix-blend-mode:multiply;display:none"><path class="tertiary"/></g><g fill="none" style="display:none"><path class="primary"/><path class="primary"/></g></g><g clip-path="url(#ak)" mask="url(#al)" style="display:none"><path class="tertiary" style="display:none"/><g mask="url(#am)" style="mix-blend-mode:multiply;display:none"><path class="tertiary"/></g><g fill="none" style="display:none"><path class="primary"/><path class="primary"/><path class="primary"/><path class="primary"/></g><path class="secondary" style="display:none"/><g mask="url(#an)" style="mix-blend-mode:multiply;display:none"><path class="secondary"/></g><g fill="none" style="display:none"><path class="primary"/><path class="primary"/></g></g></g><g clip-path="url(#ao)" style="display:none"><path class="secondary" style="display:none"/><g mask="url(#ap)" style="mix-blend-mode:multiply;display:none"><path class="secondary"/></g><path fill="none" class="primary" style="display:none"/><path fill="none" class="primary" style="display:none"/><path class="tertiary" style="display:none"/><g mask="url(#aq)" style="mix-blend-mode:multiply;display:none"><path class="tertiary"/></g><path fill="none" class="primary" style="display:none"/><path class="tertiary" style="display:none"/><g mask="url(#ar)" style="mix-blend-mode:multiply;display:none"><path class="tertiary"/></g><path fill="none" class="primary" style="display:none"/></g><g clip-path="url(#as)" style="display:block"><path fill="#FFF" d="M-47.117-121.05c-2.622-8.066-5.806-15.267-9.531-21.459-25.747 3.086-49.437 10.892-69.495 22.22-20.229 24.718-37.722 59.3-48.459 99.369-5.795 21.626-9.085 42.852-10.076 62.765-.999 20.093.343 38.849 3.817 55.333 20.291 19.248 49.017 34.553 82.785 43.744q3.04.827 6.131 1.587c7.545-12.845 14.64-27.095 21.068-42.482 22.247 9.062 47.663 14.199 74.653 14.199 24.398 0 47.508-4.198 68.156-11.698 6.147 14.432 12.879 27.835 20.013 39.981q3.807-.937 7.534-1.974c33.161-9.23 61.373-24.376 81.382-43.357 6.918-32.821 5.382-74.652-6.259-118.098-10.737-40.069-28.23-74.651-48.459-99.369-20.058-11.328-43.748-19.134-69.495-22.22-3.466 5.762-6.464 12.398-8.977 19.791-13.94-3.053-28.666-4.689-43.895-4.689-17.801 0-34.919 2.235-50.893 6.357" class="secondary" style="display:block" transform="translate(215 214.657)"/><g mask="url(#at)" opacity=".5" style="mix-blend-mode:multiply;display:block"><path fill="#FFF" d="M167.883 93.607c-2.622-8.066-5.806-15.267-9.531-21.459-25.747 3.086-49.437 10.892-69.495 22.22-20.229 24.718-37.722 59.3-48.459 99.369-5.795 21.626-9.085 42.852-10.076 62.765-.999 20.093.343 38.849 3.817 55.333 20.291 19.248 49.017 34.553 82.785 43.744q3.04.827 6.131 1.587c7.545-12.845 14.64-27.095 21.068-42.482 22.247 9.062 47.663 14.199 74.653 14.199 24.398 0 47.508-4.198 68.156-11.698 6.147 14.432 12.879 27.835 20.013 39.981q3.808-.937 7.534-1.974c33.161-9.23 61.373-24.376 81.382-43.357 6.918-32.821 5.382-74.652-6.259-118.098-10.737-40.069-28.23-74.651-48.459-99.369-20.058-11.328-43.748-19.134-69.495-22.22-3.466 5.762-6.464 12.398-8.977 19.791-13.94-3.053-28.666-4.689-43.895-4.689-17.801 0-34.919 2.235-50.893 6.357" class="secondary" opacity="1"/></g><path fill="none" stroke="#000" stroke-linejoin="round" stroke-width="10.5" d="M-47.117-121.05c-2.622-8.066-5.806-15.267-9.531-21.459-25.747 3.086-49.437 10.892-69.495 22.22-20.229 24.718-37.722 59.3-48.459 99.369-5.795 21.626-9.085 42.852-10.076 62.765-.999 20.093.343 38.849 3.817 55.333 20.291 19.248 49.017 34.553 82.785 43.744q3.04.827 6.131 1.587c7.545-12.845 14.64-27.095 21.068-42.482 22.247 9.062 47.663 14.199 74.653 14.199 24.398 0 47.508-4.198 68.156-11.698 6.147 14.432 12.879 27.835 20.013 39.981q3.807-.937 7.534-1.974c33.161-9.23 61.373-24.376 81.382-43.357 6.918-32.821 5.382-74.652-6.259-118.098-10.737-40.069-28.23-74.651-48.459-99.369-20.058-11.328-43.748-19.134-69.495-22.22-3.466 5.762-6.464 12.398-8.977 19.791-13.94-3.053-28.666-4.689-43.895-4.689-17.801 0-34.919 2.235-50.893 6.357z" class="primary" style="display:block" transform="translate(215 214.657)"/><g style="display:none"><path class="secondary"/><path class="secondary"/></g><path fill="#FFF" d="M215 214.657" class="secondary" style="display:block"/><g mask="url(#au)" opacity=".5" style="mix-blend-mode:multiply;display:block"><path fill="#FFF" d="M215 214.657" class="secondary"/></g><g mask="url(#av)" style="display:block"><path fill="#FFF" d="M389.358 193.737c11.611 43.446 13.142 85.277 6.242 118.098-17.311 16.464-40.778 30.043-68.282 39.378 11.567-9.213 72.91-66.714 62.04-157.476" class="secondary"/></g><path fill="#FFF" d="M-174.602-20.92C-185.5 69.842-124 127.343-112.403 136.556c-27.575-9.335-51.102-22.914-68.458-39.378-6.918-32.821-5.382-74.652 6.259-118.098" class="secondary" style="display:block" transform="translate(215 214.657)"/><g mask="url(#aw)" opacity=".5" style="mix-blend-mode:multiply;display:block"><path fill="#FFF" d="M40.398 193.737C29.5 284.499 91 342 102.597 351.213c-27.575-9.335-51.102-22.914-68.458-39.378-6.918-32.821-5.382-74.652 6.259-118.098" class="secondary" opacity="1"/></g><path fill="none" stroke="#000" stroke-linejoin="round" stroke-width="10.5" d="M-47.117-121.05c-2.622-8.066-5.806-15.267-9.531-21.459-25.747 3.086-49.437 10.892-69.495 22.22-20.229 24.718-37.722 59.3-48.459 99.369-5.795 21.626-9.085 42.852-10.076 62.765-.999 20.093.343 38.849 3.817 55.333 20.291 19.248 49.017 34.553 82.785 43.744q3.04.827 6.131 1.587c7.545-12.845 14.64-27.095 21.068-42.482 22.247 9.062 47.663 14.199 74.653 14.199 24.398 0 47.508-4.198 68.156-11.698 6.147 14.432 12.879 27.835 20.013 39.981q3.807-.937 7.534-1.974c33.161-9.23 61.373-24.376 81.382-43.357 6.918-32.821 5.382-74.652-6.259-118.098-10.737-40.069-28.23-74.651-48.459-99.369-20.058-11.328-43.748-19.134-69.495-22.22-3.466 5.762-6.464 12.398-8.977 19.791-13.94-3.053-28.666-4.689-43.895-4.689-17.801 0-34.919 2.235-50.893 6.357z" class="primary" style="display:block" transform="translate(215 214.657)"/><path fill="none" stroke="#000" stroke-linecap="round" stroke-linejoin="round" stroke-width="10.5" d="M-93.825-11.704C-67.552 3.011-35.108 11.704 0 11.704s67.552-8.693 93.825-23.408" class="primary" style="display:block" transform="translate(218.776 317.178)"/><g style="display:none"><path class="secondary"/><path class="secondary"/></g><g fill="none" style="display:none"><path class="primary"/><path class="primary"/></g><path fill="none" stroke="#000" stroke-linecap="round" stroke-linejoin="round" stroke-width="10.5" d="M0 0" class="primary" style="display:block" transform="translate(215 214.657)"/><path fill="none" stroke="#000" stroke-linecap="round" stroke-linejoin="round" stroke-width="10.5" d="M215 214.657" class="primary" style="display:block"/><path d="M285 260c13.807 0 25-13.431 25-30s-11.193-30-25-30-25 13.431-25 30 11.193 30 25 30" class="tertiary" style="display:block"/><g mask="url(#ax)" opacity=".5" style="mix-blend-mode:multiply;display:block"><path d="M285 260c13.807 0 25-13.431 25-30s-11.193-30-25-30-25 13.431-25 30 11.193 30 25 30" class="tertiary"/></g><path fill="none" stroke="#000" stroke-width="10.5" d="M0 30c13.807 0 25-13.431 25-30S13.807-30 0-30-25-16.569-25 0s11.193 30 25 30z" class="primary" style="display:block" transform="translate(285 230)"/><path d="M0 30c13.807 0 25-13.431 25-30S13.807-30 0-30-25-16.569-25 0s11.193 30 25 30" class="tertiary" style="display:block" transform="translate(145 230)"/><g mask="url(#ay)" opacity=".5" style="mix-blend-mode:multiply;display:block"><path d="M145 260c13.807 0 25-13.431 25-30s-11.193-30-25-30-25 13.431-25 30 11.193 30 25 30" class="tertiary" opacity="1"/></g><path fill="none" stroke="#000" stroke-width="10.5" d="M0 30c13.807 0 25-13.431 25-30S13.807-30 0-30-25-16.569-25 0s11.193 30 25 30z" class="primary" style="display:block" transform="translate(145 230)"/></g><g clip-path="url(#az)" style="display:none"><path class="secondary" style="display:none"/><g mask="url(#aA)" style="mix-blend-mode:multiply;display:none"><path class="secondary"/></g><path fill="none" class="primary" style="display:none"/><path fill="none" class="primary" style="display:none"/><path class="tertiary" style="display:none"/><g mask="url(#aB)" style="mix-blend-mode:multiply;display:none"><path class="tertiary"/></g><path fill="none" class="primary" style="display:none"/><path class="tertiary" style="display:none"/><g mask="url(#aC)" style="mix-blend-mode:multiply;display:none"><path class="tertiary"/></g><path fill="none" class="primary" style="display:none"/></g></g></svg>