<?xml version="1.0" encoding="UTF-8"?>
<!DOCTYPE svg PUBLIC "-//W3C//DTD SVG 1.1//EN" "http://www.w3.org/Graphics/SVG/1.1/DTD/svg11.dtd">
<svg xmlns="http://www.w3.org/2000/svg" version="1.1" width="512px" height="512px" style="shape-rendering:geometricPrecision; text-rendering:geometricPrecision; image-rendering:optimizeQuality; fill-rule:evenodd; clip-rule:evenodd" xmlns:xlink="http://www.w3.org/1999/xlink">
<g><path style="opacity:0.984" fill="#000000" d="M 183.5,96.5 C 187.846,96.3343 192.179,96.501 196.5,97C 198.616,98.1707 199.282,99.6707 198.5,101.5C 164.856,111.088 133.856,125.921 105.5,146C 104.304,146.654 104.304,147.154 105.5,147.5C 163.872,118.563 225.539,107.396 290.5,114C 328.419,117.979 364.419,128.479 398.5,145.5C 399.293,144.645 398.96,143.811 397.5,143C 371.216,125.395 342.882,111.895 312.5,102.5C 314.946,97.3864 318.946,95.3864 324.5,96.5C 362.829,100.102 396.995,113.769 427,137.5C 462.768,208.24 480.768,283.24 481,362.5C 467.664,381.259 450.497,395.426 429.5,405C 408.246,415.065 385.913,419.565 362.5,418.5C 354.12,408.789 346.12,398.789 338.5,388.5C 365.092,380.88 387.426,366.714 405.5,346C 307.557,399.946 209.557,399.946 111.5,346C 128.641,366.085 149.975,379.918 175.5,387.5C 167.357,398.144 159.024,408.644 150.5,419C 112.636,419.27 79.3031,407.27 50.5,383C 44.0742,376.632 38.2408,369.798 33,362.5C 33.2312,283.242 51.2312,208.242 87,137.5C 115.483,115.175 147.65,101.509 183.5,96.5 Z M 177.5,240.5 C 201.429,238.528 216.929,248.861 224,271.5C 226.439,290.875 220.272,306.708 205.5,319C 184.421,329.521 166.921,325.355 153,306.5C 141.477,283.953 144.977,264.12 163.5,247C 168.022,244.335 172.689,242.169 177.5,240.5 Z M 318.5,240.5 C 347.028,240.19 362.362,254.356 364.5,283C 361.776,311.734 346.11,325.4 317.5,324C 300.001,318.52 289.834,306.687 287,288.5C 285.28,264.232 295.78,248.232 318.5,240.5 Z"/></g>
</svg>
