<svg xmlns="http://www.w3.org/2000/svg" width="430" height="430" style="width:100%;height:100%;transform:translate3d(0,0,0);content-visibility:visible" viewBox="0 0 430 430"><defs><clipPath id="m"><path d="M0 0h430v430H0z"/></clipPath><clipPath id="M"><path d="M0 0h430v430H0z"/></clipPath><clipPath id="N"><path d="M0 0h430v430H0z"/></clipPath><clipPath id="L"><path d="M0 0h430v430H0z"/></clipPath><clipPath id="G"><path d="M0 0h430v430H0z"/></clipPath><clipPath id="J"><path d="M0 0h430v430H0z"/></clipPath><clipPath id="H"><path d="M0 0h430v430H0z"/></clipPath><clipPath id="C"><path d="M0 0h430v430H0z"/></clipPath><clipPath id="D"><path d="M0 0h430v430H0z"/></clipPath><clipPath id="y"><path d="M0 0h430v430H0z"/></clipPath><clipPath id="z"><path d="M0 0h430v430H0z"/></clipPath><clipPath id="t"><path d="M0 0h430v430H0z"/></clipPath><clipPath id="v"><path d="M0 0h430v430H0z"/></clipPath><clipPath id="u"><path d="M0 0h430v430H0z"/></clipPath><clipPath id="n"><path d="M0 0h430v430H0z"/></clipPath><clipPath id="r"><path d="M0 0h430v430H0z"/></clipPath><clipPath id="o"><path d="M0 0h430v430H0z"/></clipPath><mask id="O" mask-type="alpha"><use xmlns:a0="http://www.w3.org/1999/xlink" a0:href="#a"/></mask><mask id="K" mask-type="alpha"><use xmlns:a1="http://www.w3.org/1999/xlink" a1:href="#b"/></mask><mask id="I" mask-type="alpha"><use xmlns:a2="http://www.w3.org/1999/xlink" a2:href="#c"/></mask><mask id="F" mask-type="alpha"><use xmlns:a3="http://www.w3.org/1999/xlink" a3:href="#d"/></mask><mask id="E" mask-type="alpha"><use xmlns:a4="http://www.w3.org/1999/xlink" a4:href="#e"/></mask><mask id="B" mask-type="alpha"><use xmlns:a5="http://www.w3.org/1999/xlink" a5:href="#f"/></mask><mask id="A" mask-type="alpha"><use xmlns:a6="http://www.w3.org/1999/xlink" a6:href="#g"/></mask><mask id="x" mask-type="alpha"><use xmlns:a7="http://www.w3.org/1999/xlink" a7:href="#h"/></mask><mask id="w" mask-type="alpha"><use xmlns:a8="http://www.w3.org/1999/xlink" a8:href="#i"/></mask><mask id="s" mask-type="alpha"><g filter="url(#j)"><path fill="#fff" d="M0 0h430v430H0z" opacity="0"/><use xmlns:a9="http://www.w3.org/1999/xlink" a9:href="#k"/></g></mask><mask id="p" mask-type="alpha"><use xmlns:a10="http://www.w3.org/1999/xlink" a10:href="#l"/></mask><path id="a" style="display:none"/><path id="b" fill="#4BB3FD" d="M97.963-182a3 3 0 0 0-3-3h-70.75c-38.66 0-70 31.34-70 70v75.357h-54.857a3 3 0 0 0-3 3v66.679a3 3 0 0 0 3 3h54.857V182a3 3 0 0 0 3 3h66.679a3 3 0 0 0 3-3V33.036h55.565a3 3 0 0 0 2.895-2.211l18.185-66.679a3 3 0 0 0-2.895-3.789h-73.75v-52.678c0-11.046 8.954-20 20-20h48.071a3 3 0 0 0 3-3z" style="display:block" transform="translate(214.644 215)"/><path id="c" fill="#4BB3FD" d="M97.963-182a3 3 0 0 0-3-3h-70.75c-38.66 0-70 31.34-70 70v75.357h-54.857a3 3 0 0 0-3 3v66.679a3 3 0 0 0 3 3h54.857V182a3 3 0 0 0 3 3h66.679a3 3 0 0 0 3-3V33.036h55.565a3 3 0 0 0 2.895-2.211l18.185-66.679a3 3 0 0 0-2.895-3.789h-73.75v-52.678c0-11.046 8.954-20 20-20h48.071a3 3 0 0 0 3-3z" style="display:block" transform="translate(214.644 215)"/><path id="i" style="display:none"/><path id="h" class="primary" style="display:none"/><path id="k" class="primary" style="display:none"/><path id="l" class="primary" style="display:none"/><g id="d" style="display:none"><path class="primary"/><path class="primary" style="mix-blend-mode:multiply"/></g><g id="e" style="display:none"><path class="primary"/><path class="primary" style="mix-blend-mode:multiply"/></g><g id="f" style="display:none"><path class="primary"/><path class="primary" style="mix-blend-mode:multiply"/></g><g id="g" style="display:none"><path class="primary"/><path class="primary" style="mix-blend-mode:multiply"/></g><filter id="j" width="100%" height="100%" x="0%" y="0%" filterUnits="objectBoundingBox"><feComponentTransfer in="SourceGraphic"><feFuncA tableValues="1.0 0.0" type="table"/></feComponentTransfer></filter></defs><g clip-path="url(#m)"><g clip-path="url(#n)" style="display:none"><g style="display:none"><path class="secondary"/><path class="secondary" style="mix-blend-mode:multiply"/></g><path fill="none" class="primary" style="display:none"/><g clip-path="url(#o)" mask="url(#p)" style="display:none"><g style="display:none"><path class="tertiary"/><path class="tertiary" style="mix-blend-mode:multiply"/></g><path fill="none" class="primary" style="display:none"/></g><g clip-path="url(#r)" mask="url(#s)" style="display:none"><g style="display:none"><path class="secondary"/><path class="secondary" style="mix-blend-mode:multiply"/></g><path fill="none" class="primary" style="display:none"/></g></g><g clip-path="url(#t)" style="display:none"><g style="display:none"><path class="secondary"/><path class="secondary" style="mix-blend-mode:multiply"/></g><path fill="none" class="primary" style="display:none"/><g clip-path="url(#u)" style="display:none"><g style="display:none"><path class="secondary"/><path class="secondary" style="mix-blend-mode:multiply"/></g><path fill="none" class="primary" style="display:none"/></g><g clip-path="url(#v)" mask="url(#w)" style="display:none"><g style="display:none"><path class="tertiary"/><path class="tertiary" style="mix-blend-mode:multiply"/></g><g mask="url(#x)" style="mix-blend-mode:multiply;display:none"><path class="tertiary"/></g><path fill="none" class="primary" style="display:none"/></g></g><g clip-path="url(#y)" style="display:none"><g clip-path="url(#z)" style="display:none"><g style="display:none"><path class="secondary"/><path class="secondary" style="mix-blend-mode:multiply"/></g><g style="display:none"><path class="secondary"/><path class="secondary" style="mix-blend-mode:multiply"/></g><g mask="url(#A)" style="mix-blend-mode:multiply;display:none"><path class="secondary"/></g><path class="secondary" style="mix-blend-mode:multiply;display:none"/><path fill="none" class="primary" style="display:none"/><path fill="none" class="primary" style="display:none"/><g style="display:none"><path class="secondary"/><path class="secondary" style="mix-blend-mode:multiply"/><path class="secondary"/><path class="secondary" style="mix-blend-mode:multiply"/></g><g style="display:none"><path class="secondary"/><path class="secondary" style="mix-blend-mode:multiply"/></g><g mask="url(#B)" style="display:none"><path class="secondary"/><path class="secondary" style="mix-blend-mode:multiply"/></g><path fill="none" class="primary" style="display:none"/><path fill="none" class="primary" style="display:none"/><path fill="none" class="primary" style="display:none"/><path fill="none" class="primary" style="display:none"/><g fill="none" style="display:none"><path class="primary"/><path class="primary"/></g><g fill="none" style="display:none"><path class="primary"/><path class="primary"/><path class="primary"/></g></g></g><g clip-path="url(#C)" style="display:none"><g clip-path="url(#D)" style="display:none"><g style="display:none"><path class="secondary"/><path class="secondary" style="mix-blend-mode:multiply"/></g><g style="display:none"><path class="secondary"/><path class="secondary" style="mix-blend-mode:multiply"/></g><g mask="url(#E)" style="mix-blend-mode:multiply;display:none"><path class="secondary"/></g><path class="secondary" style="mix-blend-mode:multiply;display:none"/><path fill="none" class="primary" style="display:none"/><path fill="none" class="primary" style="display:none"/><g style="display:none"><path class="secondary"/><path class="secondary" style="mix-blend-mode:multiply"/><path class="secondary"/><path class="secondary" style="mix-blend-mode:multiply"/></g><g style="display:none"><path class="secondary"/><path class="secondary" style="mix-blend-mode:multiply"/></g><g mask="url(#F)" style="display:none"><path class="secondary"/><path class="secondary" style="mix-blend-mode:multiply"/></g><path fill="none" class="primary" style="display:none"/><path fill="none" class="primary" style="display:none"/><path fill="none" class="primary" style="display:none"/><path fill="none" class="primary" style="display:none"/><g fill="none" style="display:none"><path class="primary"/><path class="primary"/></g><g fill="none" style="display:none"><path class="primary"/><path class="primary"/><path class="primary"/></g></g></g><g clip-path="url(#G)" style="display:block"><g clip-path="url(#H)" style="display:none"><path d="M97.963-182a3 3 0 0 0-3-3h-70.75c-38.66 0-70 31.34-70 70v75.357h-54.857a3 3 0 0 0-3 3v66.679a3 3 0 0 0 3 3h54.857V182a3 3 0 0 0 3 3h66.679a3 3 0 0 0 3-3V33.036h55.565a3 3 0 0 0 2.895-2.211l18.185-66.679a3 3 0 0 0-2.895-3.789h-73.75v-52.678c0-11.046 8.954-20 20-20h48.071a3 3 0 0 0 3-3z" class="secondary" style="display:block" transform="translate(214.644 215)"/><g mask="url(#I)" opacity=".4" style="mix-blend-mode:multiply;display:block"><path d="M203.858 175.357h-35V100c0-38.66 31.34-70 70-70h35c-38.66 0-70 31.34-70 70zm-57.858 0v72.679h-32a3 3 0 0 1-3-3v-66.679a3 3 0 0 1 3-3zm57.858 72.679V400h-32a3 3 0 0 1-3-3V248.036z" class="secondary" opacity="1"/></g><path fill="none" stroke="#000" stroke-linejoin="round" stroke-width="10.5" d="M97.5-112.321V-185H23.75c-38.66 0-70 31.34-70 70v75.357h-57.857v72.679h57.857V185h72.679V33.036h57.857l19.821-72.679H26.429v-52.678c0-11.046 8.954-20 20-20z" class="primary" style="display:block" transform="translate(215.107 215)"/></g><g clip-path="url(#J)" style="display:block"><path d="M97.963-182a3 3 0 0 0-3-3h-70.75c-38.66 0-70 31.34-70 70v75.357h-54.857a3 3 0 0 0-3 3v66.679a3 3 0 0 0 3 3h54.857V182a3 3 0 0 0 3 3h66.679a3 3 0 0 0 3-3V33.036h55.565a3 3 0 0 0 2.895-2.211l18.185-66.679a3 3 0 0 0-2.895-3.789h-73.75v-52.678c0-11.046 8.954-20 20-20h48.071a3 3 0 0 0 3-3z" class="secondary" style="display:block" transform="translate(214.644 215)"/><g mask="url(#K)" opacity=".4" style="mix-blend-mode:multiply;display:block"><path d="M203.858 175.357h-35V100c0-38.66 31.34-70 70-70h35c-38.66 0-70 31.34-70 70zm-57.858 0v72.679h-32a3 3 0 0 1-3-3v-66.679a3 3 0 0 1 3-3zm57.858 72.679V400h-32a3 3 0 0 1-3-3V248.036z" class="secondary" opacity="1"/></g><path fill="none" stroke="#000" stroke-linejoin="round" stroke-width="10.5" d="M97.5-112.321V-185H23.75c-38.66 0-70 31.34-70 70v75.357h-57.857v72.679h57.857V185h72.679V33.036h57.857l19.821-72.679H26.429v-52.678c0-11.046 8.954-20 20-20z" class="primary" style="display:block" transform="translate(215.107 215)"/></g></g><g clip-path="url(#L)" style="display:none"><path class="secondary" style="display:none"/><path class="secondary" style="mix-blend-mode:multiply;display:none"/><path fill="none" class="primary" style="display:none"/></g><g clip-path="url(#M)" style="display:none"><g clip-path="url(#N)" style="display:none"><path class="secondary" style="display:none"/><g mask="url(#O)" style="mix-blend-mode:multiply;display:none"><path class="secondary"/></g><path fill="none" class="primary" style="display:none"/></g></g></g></svg>