<svg xmlns="http://www.w3.org/2000/svg" width="430" height="430" style="width:100%;height:100%;transform:translate3d(0,0,0);content-visibility:visible" viewBox="0 0 430 430"><defs><filter id="by" width="300%" height="300%" x="-100%" y="-100%"><feGaussianBlur result="filter_result_0"/></filter><filter id="bx" width="300%" height="300%" x="-100%" y="-100%"><feGaussianBlur result="filter_result_0"/></filter><filter id="bw" width="300%" height="300%" x="-100%" y="-100%"><feGaussianBlur result="filter_result_0"/></filter><filter id="b" width="100%" height="100%" x="0%" y="0%" filterUnits="objectBoundingBox"><feComponentTransfer in="SourceGraphic"><feFuncA tableValues="1.0 0.0" type="table"/></feComponentTransfer></filter><filter id="bs" width="300%" height="300%" x="-100%" y="-100%"><feGaussianBlur result="filter_result_0"/></filter><filter id="br" width="300%" height="300%" x="-100%" y="-100%"><feGaussianBlur result="filter_result_0"/></filter><filter id="bq" width="300%" height="300%" x="-100%" y="-100%"><feGaussianBlur result="filter_result_0"/></filter><filter id="bm" width="300%" height="300%" x="-100%" y="-100%"><feGaussianBlur result="filter_result_0" stdDeviation="31.5 31.5"/></filter><filter id="bl" width="300%" height="300%" x="-100%" y="-100%"><feGaussianBlur result="filter_result_0" stdDeviation="31.5 31.5"/></filter><filter id="bk" width="300%" height="300%" x="-100%" y="-100%"><feGaussianBlur result="filter_result_0" stdDeviation="31.5 31.5"/></filter><filter id="bh" width="300%" height="300%" x="-100%" y="-100%"><feGaussianBlur result="filter_result_0" stdDeviation="31.5 31.5"/></filter><filter id="bg" width="300%" height="300%" x="-100%" y="-100%"><feGaussianBlur result="filter_result_0" stdDeviation="31.5 31.5"/></filter><filter id="bf" width="300%" height="300%" x="-100%" y="-100%"><feGaussianBlur result="filter_result_0" stdDeviation="31.5 31.5"/></filter><filter id="bb" width="300%" height="300%" x="-100%" y="-100%"><feGaussianBlur result="filter_result_0"/></filter><filter id="ba" width="300%" height="300%" x="-100%" y="-100%"><feGaussianBlur result="filter_result_0"/></filter><filter id="aZ" width="300%" height="300%" x="-100%" y="-100%"><feGaussianBlur result="filter_result_0"/></filter><filter id="aW" width="300%" height="300%" x="-100%" y="-100%"><feGaussianBlur result="filter_result_0"/></filter><filter id="aV" width="300%" height="300%" x="-100%" y="-100%"><feGaussianBlur result="filter_result_0"/></filter><filter id="aU" width="300%" height="300%" x="-100%" y="-100%"><feGaussianBlur result="filter_result_0"/></filter><filter id="aR" width="300%" height="300%" x="-100%" y="-100%"><feGaussianBlur result="filter_result_0"/></filter><filter id="aQ" width="300%" height="300%" x="-100%" y="-100%"><feGaussianBlur result="filter_result_0"/></filter><filter id="aP" width="300%" height="300%" x="-100%" y="-100%"><feGaussianBlur result="filter_result_0"/></filter><filter id="aM" width="300%" height="300%" x="-100%" y="-100%"><feGaussianBlur result="filter_result_0"/></filter><filter id="aL" width="300%" height="300%" x="-100%" y="-100%"><feGaussianBlur result="filter_result_0"/></filter><filter id="aK" width="300%" height="300%" x="-100%" y="-100%"><feGaussianBlur result="filter_result_0"/></filter><filter id="aH" width="300%" height="300%" x="-100%" y="-100%"><feGaussianBlur result="filter_result_0"/></filter><filter id="aG" width="300%" height="300%" x="-100%" y="-100%"><feGaussianBlur result="filter_result_0"/></filter><filter id="aF" width="300%" height="300%" x="-100%" y="-100%"><feGaussianBlur result="filter_result_0"/></filter><filter id="aC" width="300%" height="300%" x="-100%" y="-100%"><feGaussianBlur result="filter_result_0"/></filter><filter id="aB" width="300%" height="300%" x="-100%" y="-100%"><feGaussianBlur result="filter_result_0"/></filter><filter id="aA" width="300%" height="300%" x="-100%" y="-100%"><feGaussianBlur result="filter_result_0"/></filter><filter id="ar" width="300%" height="300%" x="-100%" y="-100%"><feGaussianBlur result="filter_result_0"/></filter><filter id="aq" width="300%" height="300%" x="-100%" y="-100%"><feGaussianBlur result="filter_result_0"/></filter><filter id="ap" width="300%" height="300%" x="-100%" y="-100%"><feGaussianBlur result="filter_result_0"/></filter><filter id="am" width="300%" height="300%" x="-100%" y="-100%"><feGaussianBlur result="filter_result_0"/></filter><filter id="al" width="300%" height="300%" x="-100%" y="-100%"><feGaussianBlur result="filter_result_0"/></filter><filter id="ak" width="300%" height="300%" x="-100%" y="-100%"><feGaussianBlur result="filter_result_0"/></filter><filter id="w" width="100%" height="100%" x="0%" y="0%" filterUnits="objectBoundingBox"><feComponentTransfer in="SourceGraphic"><feFuncA tableValues="1.0 0.0" type="table"/></feComponentTransfer></filter><filter id="Z" width="300%" height="300%" x="-100%" y="-100%"><feGaussianBlur result="filter_result_0"/></filter><filter id="Y" width="300%" height="300%" x="-100%" y="-100%"><feGaussianBlur result="filter_result_0"/></filter><filter id="X" width="300%" height="300%" x="-100%" y="-100%"><feGaussianBlur result="filter_result_0"/></filter><filter id="U" width="300%" height="300%" x="-100%" y="-100%"><feGaussianBlur result="filter_result_0"/></filter><filter id="T" width="300%" height="300%" x="-100%" y="-100%"><feGaussianBlur result="filter_result_0"/></filter><filter id="S" width="300%" height="300%" x="-100%" y="-100%"><feGaussianBlur result="filter_result_0"/></filter><filter id="F" width="100%" height="100%" x="0%" y="0%" filterUnits="objectBoundingBox"><feComponentTransfer in="SourceGraphic"><feFuncA tableValues="1.0 0.0" type="table"/></feComponentTransfer></filter><mask id="bv" mask-type="alpha"><use xmlns:a0="http://www.w3.org/1999/xlink" a0:href="#a"/></mask><mask id="bt" mask-type="alpha"><g filter="url(#b)"><path fill="#fff" d="M0 0h430v430H0z" opacity="0"/><use xmlns:a1="http://www.w3.org/1999/xlink" a1:href="#d"/></g></mask><mask id="bp" mask-type="alpha"><use xmlns:a2="http://www.w3.org/1999/xlink" a2:href="#e"/></mask><mask id="bi" mask-type="alpha"><use xmlns:a3="http://www.w3.org/1999/xlink" a3:href="#f"/></mask><mask id="bd" mask-type="alpha"><use xmlns:a4="http://www.w3.org/1999/xlink" a4:href="#g"/></mask><mask id="aY" mask-type="alpha"><use xmlns:a5="http://www.w3.org/1999/xlink" a5:href="#i"/></mask><mask id="aT" mask-type="alpha"><use xmlns:a6="http://www.w3.org/1999/xlink" a6:href="#j"/></mask><mask id="aO" mask-type="alpha"><use xmlns:a7="http://www.w3.org/1999/xlink" a7:href="#k"/></mask><mask id="aJ" mask-type="alpha"><use xmlns:a8="http://www.w3.org/1999/xlink" a8:href="#l"/></mask><mask id="aE" mask-type="alpha"><use xmlns:a9="http://www.w3.org/1999/xlink" a9:href="#m"/></mask><mask id="az" mask-type="alpha"><use xmlns:a10="http://www.w3.org/1999/xlink" a10:href="#o"/></mask><mask id="aw" mask-type="alpha"><use xmlns:a11="http://www.w3.org/1999/xlink" a11:href="#p"/></mask><mask id="av" mask-type="alpha"><use xmlns:a12="http://www.w3.org/1999/xlink" a12:href="#q"/></mask><mask id="au" mask-type="alpha"><use xmlns:a13="http://www.w3.org/1999/xlink" a13:href="#r"/></mask><mask id="at" mask-type="alpha"><use xmlns:a14="http://www.w3.org/1999/xlink" a14:href="#s"/></mask><mask id="ao" mask-type="alpha"><use xmlns:a15="http://www.w3.org/1999/xlink" a15:href="#t"/></mask><mask id="aj" mask-type="alpha"><use xmlns:a16="http://www.w3.org/1999/xlink" a16:href="#u"/></mask><mask id="ah" mask-type="alpha"><g filter="url(#w)"><path fill="#fff" d="M0 0h430v430H0z" opacity="0"/><use xmlns:a17="http://www.w3.org/1999/xlink" a17:href="#x"/></g></mask><mask id="ae" mask-type="alpha"><use xmlns:a18="http://www.w3.org/1999/xlink" a18:href="#y"/></mask><mask id="ad" mask-type="alpha"><use xmlns:a19="http://www.w3.org/1999/xlink" a19:href="#z"/></mask><mask id="ac" mask-type="alpha"><use xmlns:a20="http://www.w3.org/1999/xlink" a20:href="#A"/></mask><mask id="ab" mask-type="alpha"><use xmlns:a21="http://www.w3.org/1999/xlink" a21:href="#B"/></mask><mask id="W" mask-type="alpha"><use xmlns:a22="http://www.w3.org/1999/xlink" a22:href="#C"/></mask><mask id="R" mask-type="alpha"><use xmlns:a23="http://www.w3.org/1999/xlink" a23:href="#D"/></mask><mask id="P" mask-type="alpha"><g filter="url(#F)"><path fill="#fff" d="M0 0h430v430H0z" opacity="0"/><use xmlns:a24="http://www.w3.org/1999/xlink" a24:href="#G"/></g></mask><clipPath id="M"><path d="M0 0h430v430H0z"/></clipPath><clipPath id="bn"><path d="M0 0h430v430H0z"/></clipPath><clipPath id="bu"><path d="M0 0h1192v430H0z"/></clipPath><clipPath id="bo"><path d="M0 0h1192v430H0z"/></clipPath><clipPath id="bc"><path d="M0 0h430v430H0z"/></clipPath><clipPath id="bj"><path d="M0 0h1192v430H0z"/></clipPath><clipPath id="be"><path d="M0 0h1192v430H0z"/></clipPath><clipPath id="ax"><path d="M0 0h430v430H0z"/></clipPath><clipPath id="aX"><path d="M0 0h1192v430H0z"/></clipPath><clipPath id="aS"><path d="M0 0h1192v430H0z"/></clipPath><clipPath id="aN"><path d="M0 0h1192v430H0z"/></clipPath><clipPath id="aI"><path d="M0 0h1192v430H0z"/></clipPath><clipPath id="aD"><path d="M0 0h1192v430H0z"/></clipPath><clipPath id="ay"><path d="M0 0h1192v430H0z"/></clipPath><clipPath id="af"><path d="M0 0h430v430H0z"/></clipPath><clipPath id="as"><path d="M0 0h430v430H0z"/></clipPath><clipPath id="ag"><path d="M0 0h430v430H0z"/></clipPath><clipPath id="an"><path d="M0 0h1192v430H0z"/></clipPath><clipPath id="ai"><path d="M0 0h1192v430H0z"/></clipPath><clipPath id="N"><path d="M0 0h430v430H0z"/></clipPath><clipPath id="aa"><path d="M0 0h430v430H0z"/></clipPath><clipPath id="O"><path d="M0 0h430v430H0z"/></clipPath><clipPath id="V"><path d="M0 0h1192v430H0z"/></clipPath><clipPath id="Q"><path d="M0 0h1192v430H0z"/></clipPath><path id="a" fill="url(#H)" style="display:none"/><path id="d" style="display:none"/><path id="f" fill="url(#I)" d="M105-90c0-8.284-6.716-15-15-15s-15 6.716-15 15 6.716 15 15 15 15-6.716 15-15" style="display:block" transform="translate(215 215)"/><path id="i" class="tertiary" style="display:none"/><path id="j" style="display:none"/><path id="l" fill="url(#J)" style="display:none"/><path id="m" style="display:none"/><path id="s" style="display:none"/><path id="x" style="display:none"/><path id="t" fill="url(#K)" style="display:none"/><path id="B" class="secondary" style="display:none"/><path id="G" class="secondary" style="display:none"/><path id="C" fill="url(#L)" style="display:none"/><path id="k" class="primary" style="display:none"/><path id="o" class="secondary" style="display:none"/><g id="e" style="display:none"><path/><path/></g><g id="g" fill="red" style="display:block"><path d="M115 85h200c16.569 0 30 13.431 30 30v200c0 16.569-13.431 30-30 30H115c-16.569 0-30-13.431-30-30V115c0-16.569 13.431-30 30-30m-60 30v200c0 33.137 26.863 60 60 60h200c33.137 0 60-26.863 60-60V115c0-33.137-26.863-60-60-60H115c-33.137 0-60 26.863-60 60"/><path d="M270 215c0 30.376-24.624 55-55 55s-55-24.624-55-55 24.624-55 55-55 55 24.624 55 55m30 0c0-46.944-38.056-85-85-85s-85 38.056-85 85 38.056 85 85 85 85-38.056 85-85"/></g><g id="p" style="display:none"><path/><path/><path/></g><g id="q" style="display:none"><path/><path/></g><g id="r" style="display:none"><path/><path/></g><g id="u" style="display:none"><path/><path/></g><g id="y" style="display:none"><path/><path/><path/></g><g id="z" style="display:none"><path/><path/></g><g id="A" style="display:none"><path/><path/></g><g id="D" style="display:none"><path/><path/></g><linearGradient id="H" gradientUnits="userSpaceOnUse" spreadMethod="pad"><stop/><stop/></linearGradient><linearGradient id="I" x1="-147.039" x2="127.107" y1="-160" y2="150.487" gradientUnits="userSpaceOnUse" spreadMethod="pad"><stop offset="0%" stop-color="#FFF"/><stop offset="100%"/></linearGradient><linearGradient id="J" gradientUnits="userSpaceOnUse" spreadMethod="pad"><stop/><stop/></linearGradient><linearGradient id="K" gradientUnits="userSpaceOnUse" spreadMethod="pad"><stop/><stop/></linearGradient><linearGradient id="L" gradientUnits="userSpaceOnUse" spreadMethod="pad"><stop/><stop/></linearGradient></defs><g clip-path="url(#M)"><g clip-path="url(#N)" style="display:none"><g style="display:none"><path class="secondary"/><path class="secondary" style="mix-blend-mode:multiply"/></g><path fill="none" class="primary" style="display:none"/><g clip-path="url(#O)" mask="url(#P)" style="display:none"><g clip-path="url(#Q)" mask="url(#R)" style="display:none"><g filter="url(#S)" style="display:none"><path class="quaternary"/><path class="quinary"/><path class="secondary"/><path class="senary"/></g><g filter="url(#T)" style="display:none"><path class="quaternary"/><path class="quinary"/><path class="secondary"/><path class="senary"/></g><g filter="url(#U)" style="display:none"><path class="quaternary"/><path class="quinary"/><path class="secondary"/><path class="senary"/></g></g><path fill="none" class="primary" style="display:none"/><g clip-path="url(#V)" mask="url(#W)" style="display:none"><g filter="url(#X)" style="display:none"><path class="quaternary"/><path class="quinary"/><path class="secondary"/><path class="senary"/></g><g filter="url(#Y)" style="display:none"><path class="quaternary"/><path class="quinary"/><path class="secondary"/><path class="senary"/></g><g filter="url(#Z)" style="display:none"><path class="quaternary"/><path class="quinary"/><path class="secondary"/><path class="senary"/></g></g><g fill="none" style="display:none"><path class="septenary"/><path class="primary"/></g></g><g clip-path="url(#aa)" mask="url(#ab)" style="display:none"><g mask="url(#ac)" style="display:none"><path class="tertiary"/></g><g mask="url(#ad)" style="display:none"><path class="tertiary"/><path class="tertiary" style="mix-blend-mode:multiply"/></g><g mask="url(#ae)" style="display:none"><path class="tertiary"/></g><path fill="none" class="primary" style="display:none"/><path fill="none" style="display:none"/></g></g><g clip-path="url(#af)" style="display:none"><g style="display:none"><path class="secondary"/><path class="secondary" style="mix-blend-mode:multiply"/></g><path fill="none" class="primary" style="display:none"/><g clip-path="url(#ag)" mask="url(#ah)" style="display:none"><g clip-path="url(#ai)" mask="url(#aj)" style="display:none"><g filter="url(#ak)" style="display:none"><path class="quaternary"/><path class="quinary"/><path class="secondary"/><path class="senary"/></g><g filter="url(#al)" style="display:none"><path class="quaternary"/><path class="quinary"/><path class="secondary"/><path class="senary"/></g><g filter="url(#am)" style="display:none"><path class="quaternary"/><path class="quinary"/><path class="secondary"/><path class="senary"/></g></g><path fill="none" class="primary" style="display:none"/><g clip-path="url(#an)" mask="url(#ao)" style="display:none"><g filter="url(#ap)" style="display:none"><path class="quaternary"/><path class="quinary"/><path class="secondary"/><path class="senary"/></g><g filter="url(#aq)" style="display:none"><path class="quaternary"/><path class="quinary"/><path class="secondary"/><path class="senary"/></g><g filter="url(#ar)" style="display:none"><path class="quaternary"/><path class="quinary"/><path class="secondary"/><path class="senary"/></g></g><g fill="none" style="display:none"><path class="septenary"/><path class="primary"/></g></g><g clip-path="url(#as)" mask="url(#at)" style="display:none"><g mask="url(#au)" style="display:none"><path class="tertiary"/></g><g mask="url(#av)" style="display:none"><path class="tertiary"/><path class="tertiary" style="mix-blend-mode:multiply"/></g><g mask="url(#aw)" style="display:none"><path class="tertiary"/></g><path fill="none" class="primary" style="display:none"/><path fill="none" style="display:none"/></g></g><g clip-path="url(#ax)" style="display:none"><g clip-path="url(#ay)" mask="url(#az)" style="display:none"><g filter="url(#aA)" style="display:none"><path class="quaternary"/><path class="quinary"/><path class="secondary"/><path class="senary"/></g><g filter="url(#aB)" style="display:none"><path class="quaternary"/><path class="quinary"/><path class="secondary"/><path class="senary"/></g><g filter="url(#aC)" style="display:none"><path class="quaternary"/><path class="quinary"/><path class="secondary"/><path class="senary"/></g></g><path fill="none" class="primary" style="display:none"/><g clip-path="url(#aD)" mask="url(#aE)" style="display:none"><g filter="url(#aF)" style="display:none"><path class="quaternary"/><path class="quinary"/><path class="secondary"/><path class="senary"/></g><g filter="url(#aG)" style="display:none"><path class="quaternary"/><path class="quinary"/><path class="secondary"/><path class="senary"/></g><g filter="url(#aH)" style="display:none"><path class="quaternary"/><path class="quinary"/><path class="secondary"/><path class="senary"/></g></g><path fill="none" class="primary" style="display:none"/><g clip-path="url(#aI)" mask="url(#aJ)" style="display:none"><g filter="url(#aK)" style="display:none"><path class="quaternary"/><path class="quinary"/><path class="secondary"/><path class="senary"/></g><g filter="url(#aL)" style="display:none"><path class="quaternary"/><path class="quinary"/><path class="secondary"/><path class="senary"/></g><g filter="url(#aM)" style="display:none"><path class="quaternary"/><path class="quinary"/><path class="secondary"/><path class="senary"/></g></g><path fill="none" class="primary" style="display:none"/><g clip-path="url(#aN)" mask="url(#aO)" style="display:none"><g filter="url(#aP)" style="display:none"><path class="quaternary"/><path class="quinary"/><path class="secondary"/><path class="senary"/></g><g filter="url(#aQ)" style="display:none"><path class="quaternary"/><path class="quinary"/><path class="secondary"/><path class="senary"/></g><g filter="url(#aR)" style="display:none"><path class="quaternary"/><path class="quinary"/><path class="secondary"/><path class="senary"/></g></g><path fill="none" class="primary" style="display:none"/><g clip-path="url(#aS)" mask="url(#aT)" style="display:none"><g filter="url(#aU)" style="display:none"><path class="quaternary"/><path class="quinary"/><path class="secondary"/><path class="senary"/></g><g filter="url(#aV)" style="display:none"><path class="quaternary"/><path class="quinary"/><path class="secondary"/><path class="senary"/></g><g filter="url(#aW)" style="display:none"><path class="quaternary"/><path class="quinary"/><path class="secondary"/><path class="senary"/></g></g><g clip-path="url(#aX)" mask="url(#aY)" style="display:none"><g filter="url(#aZ)" style="display:none"><path class="quaternary"/><path class="quinary"/><path class="secondary"/><path class="senary"/></g><g filter="url(#ba)" style="display:none"><path class="quaternary"/><path class="quinary"/><path class="secondary"/><path class="senary"/></g><g filter="url(#bb)" style="display:none"><path class="quaternary"/><path class="quinary"/><path class="secondary"/><path class="senary"/></g></g><path fill="none" class="primary" style="display:none"/></g><g clip-path="url(#bc)" style="display:block"><g mask="url(#bd)" style="display:block"><g clip-path="url(#be)" transform="rotate(45 405.5 -244.908)"><g filter="url(#bf)" style="display:block" transform="matrix(1.0163 0 0 1 596 215)"><path d="M214.75-215v430h-107.5v-430z" class="quaternary"/><path d="M107.75-215v430H-1.75v-430z" class="quinary"/><path d="M-.25-215v430h-107.5v-430z" class="secondary"/><path d="M-106.25-215v430h-111.5v-430z" class="senary"/></g><g filter="url(#bg)" style="display:block" transform="matrix(-1.0163 0 0 1 978 215)"><path d="M214.75-215v430h-107.5v-430z" class="quaternary"/><path d="M107.75-215v430H-1.75v-430z" class="quinary"/><path d="M-.25-215v430h-107.5v-430z" class="secondary"/><path d="M-106.25-215v430h-111.5v-430z" class="senary"/></g><g filter="url(#bh)" style="display:block" transform="matrix(-1.0163 0 0 1 217 215)"><path d="M214.75-215v430h-107.5v-430z" class="quaternary"/><path d="M107.75-215v430H-1.75v-430z" class="quinary"/><path d="M-.25-215v430h-107.5v-430z" class="secondary"/><path d="M-106.25-215v430h-111.5v-430z" class="senary"/></g></g></g><path fill="none" stroke="#000" stroke-width="10.5" d="M115 85h200c16.569 0 30 13.431 30 30v200c0 16.569-13.431 30-30 30H115c-16.569 0-30-13.431-30-30V115c0-16.569 13.431-30 30-30zm-60 30v200c0 33.137 26.863 60 60 60h200c33.137 0 60-26.863 60-60V115c0-33.137-26.863-60-60-60H115c-33.137 0-60 26.863-60 60zm215 100c0 30.376-24.624 55-55 55s-55-24.624-55-55 24.624-55 55-55 55 24.624 55 55zm30 0c0-46.944-38.056-85-85-85s-85 38.056-85 85 38.056 85 85 85 85-38.056 85-85z" class="primary" style="display:block"/><g mask="url(#bi)" style="display:block"><g clip-path="url(#bj)" transform="rotate(45 405.5 -244.908)"><g filter="url(#bk)" style="display:block" transform="matrix(1.0163 0 0 1 596 215)"><path d="M214.75-215v430h-107.5v-430z" class="quaternary"/><path d="M107.75-215v430H-1.75v-430z" class="quinary"/><path d="M-.25-215v430h-107.5v-430z" class="secondary"/><path d="M-106.25-215v430h-111.5v-430z" class="senary"/></g><g filter="url(#bl)" style="display:block" transform="matrix(-1.0163 0 0 1 978 215)"><path d="M214.75-215v430h-107.5v-430z" class="quaternary"/><path d="M107.75-215v430H-1.75v-430z" class="quinary"/><path d="M-.25-215v430h-107.5v-430z" class="secondary"/><path d="M-106.25-215v430h-111.5v-430z" class="senary"/></g><g filter="url(#bm)" style="display:block" transform="matrix(-1.0163 0 0 1 217 215)"><path d="M214.75-215v430h-107.5v-430z" class="quaternary"/><path d="M107.75-215v430H-1.75v-430z" class="quinary"/><path d="M-.25-215v430h-107.5v-430z" class="secondary"/><path d="M-106.25-215v430h-111.5v-430z" class="senary"/></g></g></g><path fill="none" stroke="#000" stroke-width="10.5" d="M320 125c0-8.284-6.716-15-15-15s-15 6.716-15 15 6.716 15 15 15 15-6.716 15-15z" class="primary" style="display:block"/></g><g clip-path="url(#bn)" style="display:none"><g clip-path="url(#bo)" mask="url(#bp)" style="display:none"><g filter="url(#bq)" style="display:none"><path class="quaternary"/><path class="quinary"/><path class="secondary"/><path class="senary"/></g><g filter="url(#br)" style="display:none"><path class="quaternary"/><path class="quinary"/><path class="secondary"/><path class="senary"/></g><g filter="url(#bs)" style="display:none"><path class="quaternary"/><path class="quinary"/><path class="secondary"/><path class="senary"/></g></g><path fill="none" class="primary" style="display:none"/><g mask="url(#bt)" style="display:none"><path fill="none" class="primary"/></g><g clip-path="url(#bu)" mask="url(#bv)" style="display:none"><g filter="url(#bw)" style="display:none"><path class="quaternary"/><path class="quinary"/><path class="secondary"/><path class="senary"/></g><g filter="url(#bx)" style="display:none"><path class="quaternary"/><path class="quinary"/><path class="secondary"/><path class="senary"/></g><g filter="url(#by)" style="display:none"><path class="quaternary"/><path class="quinary"/><path class="secondary"/><path class="senary"/></g></g><path fill="none" class="primary" style="display:none"/></g></g></svg>