<svg xmlns="http://www.w3.org/2000/svg" width="430" height="430" style="width:100%;height:100%;transform:translate3d(0,0,0);content-visibility:visible" viewBox="0 0 430 430"><defs><clipPath id="m"><path d="M0 0h430v430H0z"/></clipPath><clipPath id="G"><path d="M0 0h430v430H0z"/></clipPath><clipPath id="I"><path d="M0 0h430v430H0z"/></clipPath><clipPath id="F"><path d="M0 0h430v430H0z"/></clipPath><clipPath id="y"><path d="M0 0h430v430H0z"/></clipPath><clipPath id="C"><path d="M0 0h430v430H0z"/></clipPath><clipPath id="A"><path d="M0 0h430v430H0z"/></clipPath><clipPath id="t"><path d="M0 0h430v430H0z"/></clipPath><clipPath id="w"><path d="M0 0h430v430H0z"/></clipPath><clipPath id="u"><path d="M0 0h430v430H0z"/></clipPath><clipPath id="n"><path d="M0 0h430v430H0z"/></clipPath><clipPath id="r"><path d="M0 0h430v430H0z"/></clipPath><clipPath id="o"><path d="M0 0h430v430H0z"/></clipPath><path id="a" style="display:none"/><path id="b" style="display:none"/><path id="d" fill="red" d="M114.477 115V-35.699C114.477-79.496 79.073-115 35.4-115a87.7 87.7 0 0 0-54.888 19.308l-21.724 17.428v-30.196h-73.265V115h73.265V-9.383c0-22.825 18.451-41.329 41.212-41.329S41.212-32.208 41.212-9.383V115z" style="display:block" transform="translate(278.5 255)"/><path id="e" fill="red" d="M114.477 114.808V-35.7c0-43.796-35.404-79.3-79.077-79.3a87.7 87.7 0 0 0-54.888 19.308l-21.724 17.428v-30.196h-73.265V115h73.265V-9.383c0-22.825 18.451-41.329 41.212-41.329S41.212-32.208 41.212-9.383v124.19z" style="display:block" transform="translate(278.5 255)"/><path id="f" fill="red" d="M37.5-112.5h-75v225h75z" style="display:block" transform="translate(83.909 257.5)"/><path id="g" class="primary" style="display:none"/><path id="i" class="primary" style="display:none"/><path id="k" class="primary" style="display:none"/><path id="l" class="primary" style="display:none"/><path id="c" fill="red" d="M121.409 145h-75v225h75z" style="display:none"/><mask id="J" mask-type="alpha"><use xmlns:a0="http://www.w3.org/1999/xlink" a0:href="#a"/></mask><mask id="H" mask-type="alpha"><use xmlns:a1="http://www.w3.org/1999/xlink" a1:href="#b"/></mask><mask id="E" mask-type="alpha"><use xmlns:a2="http://www.w3.org/1999/xlink" a2:href="#c"/></mask><mask id="D" mask-type="alpha"><use xmlns:a3="http://www.w3.org/1999/xlink" a3:href="#d"/></mask><mask id="B" mask-type="alpha"><use xmlns:a4="http://www.w3.org/1999/xlink" a4:href="#e"/></mask><mask id="z" mask-type="alpha"><use xmlns:a5="http://www.w3.org/1999/xlink" a5:href="#f"/></mask><mask id="x" mask-type="alpha"><use xmlns:a6="http://www.w3.org/1999/xlink" a6:href="#g"/></mask><mask id="v" mask-type="alpha"><g filter="url(#h)"><path fill="#fff" d="M0 0h430v430H0z" opacity="0"/><use xmlns:a7="http://www.w3.org/1999/xlink" a7:href="#i"/></g></mask><mask id="s" mask-type="alpha"><g filter="url(#j)"><path fill="#fff" d="M0 0h430v430H0z" opacity="0"/><use xmlns:a8="http://www.w3.org/1999/xlink" a8:href="#k"/></g></mask><mask id="p" mask-type="alpha"><use xmlns:a9="http://www.w3.org/1999/xlink" a9:href="#l"/></mask><filter id="h" width="100%" height="100%" x="0%" y="0%" filterUnits="objectBoundingBox"><feComponentTransfer in="SourceGraphic"><feFuncA tableValues="1.0 0.0" type="table"/></feComponentTransfer></filter><filter id="j" width="100%" height="100%" x="0%" y="0%" filterUnits="objectBoundingBox"><feComponentTransfer in="SourceGraphic"><feFuncA tableValues="1.0 0.0" type="table"/></feComponentTransfer></filter></defs><g clip-path="url(#m)"><g clip-path="url(#n)" style="display:none"><g style="display:none"><path class="secondary"/><path class="secondary" style="mix-blend-mode:multiply"/></g><path fill="none" class="primary" style="display:none"/><g clip-path="url(#o)" mask="url(#p)" style="display:none"><g style="display:none"><path class="tertiary"/><path class="tertiary" style="mix-blend-mode:multiply"/></g><g fill="none" style="display:none"><path class="primary"/><path class="primary"/></g><g style="display:none"><path class="tertiary"/><path class="tertiary" style="mix-blend-mode:multiply"/></g><g fill="none" style="display:none"><path class="primary"/><path class="primary"/></g><g style="display:none"><path class="tertiary"/><path class="tertiary" style="mix-blend-mode:multiply"/></g><g fill="none" style="display:none"><path class="primary"/><path class="primary"/></g></g><g clip-path="url(#r)" mask="url(#s)" style="display:none"><g style="display:none"><path class="secondary"/><path class="secondary" style="mix-blend-mode:multiply"/></g><g fill="none" style="display:none"><path class="primary"/><path class="primary"/></g><g style="display:none"><path class="secondary"/><path class="secondary" style="mix-blend-mode:multiply"/></g><g fill="none" style="display:none"><path class="primary"/><path class="primary"/></g><g style="display:none"><path class="secondary"/><path class="secondary" style="mix-blend-mode:multiply"/></g><g fill="none" style="display:none"><path class="primary"/><path class="primary"/></g></g></g><g clip-path="url(#t)" style="display:none"><g style="display:none"><path class="secondary"/><path class="secondary" style="mix-blend-mode:multiply"/></g><path fill="none" class="primary" style="display:none"/><g clip-path="url(#u)" mask="url(#v)" style="display:none"><g style="display:none"><path class="secondary"/><path class="secondary" style="mix-blend-mode:multiply"/></g><g fill="none" style="display:none"><path class="primary"/><path class="primary"/></g><g style="display:none"><path class="secondary"/><path class="secondary" style="mix-blend-mode:multiply"/></g><g fill="none" style="display:none"><path class="primary"/><path class="primary"/></g><g style="display:none"><path class="secondary"/><path class="secondary" style="mix-blend-mode:multiply"/></g><g fill="none" style="display:none"><path class="primary"/><path class="primary"/></g></g><g clip-path="url(#w)" mask="url(#x)" style="display:none"><g style="display:none"><path class="tertiary"/><path class="tertiary" style="mix-blend-mode:multiply"/></g><g fill="none" style="display:none"><path class="primary"/><path class="primary"/></g><g style="display:none"><path class="tertiary"/><path class="tertiary" style="mix-blend-mode:multiply"/></g><g fill="none" style="display:none"><path class="primary"/><path class="primary"/></g><g style="display:none"><path class="tertiary"/><path class="tertiary" style="mix-blend-mode:multiply"/></g><g fill="none" style="display:none"><path class="primary"/><path class="primary"/></g></g></g><g clip-path="url(#y)" style="display:block"><g mask="url(#z)" style="display:block"><path d="M49.409 145a3 3 0 0 0-3 3v219a3 3 0 0 0 3 3h69a3 3 0 0 0 3-3V148a3 3 0 0 0-3-3z" class="secondary"/><path fill-opacity=".5" d="M-14.5-112.5h32v225h-32a3 3 0 0 1-3-3v-219a3 3 0 0 1 3-3" class="secondary" style="mix-blend-mode:multiply" transform="translate(63.909 257.5)"/></g><path fill="none" stroke="#000" stroke-linejoin="round" stroke-width="10.5" d="M37.5-112.5h-75v225h75z" class="primary" style="display:block" transform="translate(83.909 257.5)"/><g clip-path="url(#A)" style="display:block"><g mask="url(#B)" style="display:block"><path d="M392.977 367V219.301c0-43.797-35.404-79.301-79.077-79.301a87.7 87.7 0 0 0-54.888 19.308l-21.724 17.428V149.54a3 3 0 0 0-3-3h-67.265a3 3 0 0 0-3 3V367a3 3 0 0 0 3 3h67.265a3 3 0 0 0 3-3V245.617c0-22.825 18.451-41.329 41.212-41.329s41.212 18.504 41.212 41.329V367a3 3 0 0 0 3 3h67.265a3 3 0 0 0 3-3" class="secondary"/><path fill-opacity=".5" d="M-92.345-111.73h32v223.46h-32a3 3 0 0 1-3-3v-217.46a3 3 0 0 1 3-3m187.69 99.076V111.73h-32a3 3 0 0 1-3-3V-12.654c0-16.55-9.701-30.828-23.712-37.427a41 41 0 0 1 17.5-3.901c22.761 0 41.212 18.503 41.212 41.328" class="secondary" style="mix-blend-mode:multiply" transform="translate(259.375 258.25)"/></g><path fill="none" stroke="#000" stroke-linejoin="round" stroke-width="10.5" d="M114.477 114.808V-35.7c0-43.796-35.404-79.3-79.077-79.3a87.7 87.7 0 0 0-54.888 19.308l-21.724 17.428v-30.196h-73.265V115h73.265V-9.383c0-22.825 18.451-41.329 41.212-41.329S41.212-32.208 41.212-9.383v124.19z" class="primary" style="display:block" transform="translate(278.5 255)"/></g><g style="display:block"><path d="M83.5 30c22.091 0 40 17.909 40 40s-17.909 40-40 40-40-17.909-40-40 17.909-40 40-40" class="secondary"/><path fill-opacity=".5" d="M31.755 29.986q.749 0 1.49-.027a39.85 39.85 0 0 1-26.49 10.027c-22.091 0-40-17.909-40-40 0-21.593 17.109-39.189 38.511-39.972-8.286 7.329-13.511 18.04-13.511 29.972 0 22.091 17.909 40 40 40" class="secondary" style="mix-blend-mode:multiply" transform="translate(76.688 70)"/></g><path fill="none" stroke="#000" stroke-linejoin="round" stroke-width="10.5" d="M0-40c22.076 0 40 17.924 40 40S22.076 40 0 40-40 22.076-40 0s17.924-40 40-40z" class="primary" style="display:block" transform="translate(83.5 70)"/><g style="display:none"><path d="M83.5 30c22.091 0 40 17.909 40 40s-17.909 40-40 40-40-17.909-40-40 17.909-40 40-40" class="secondary"/><path fill-opacity=".5" d="M31.755 29.986q.749 0 1.49-.027a39.85 39.85 0 0 1-26.49 10.027c-22.091 0-40-17.909-40-40 0-21.593 17.109-39.189 38.511-39.972-8.286 7.329-13.511 18.04-13.511 29.972 0 22.091 17.909 40 40 40" class="secondary" style="mix-blend-mode:multiply" transform="translate(76.688 70)"/></g><path fill="none" stroke="#000" stroke-linejoin="round" stroke-width="10.5" d="M0-40c22.076 0 40 17.924 40 40S22.076 40 0 40-40 22.076-40 0s17.924-40 40-40z" class="primary" style="display:none" transform="translate(83.5 70)"/><g clip-path="url(#C)" style="display:none"><g mask="url(#D)" style="display:block"><path d="M392.977 367V219.301c0-43.797-35.404-79.301-79.077-79.301-19.951 0-41.559-1.691-57.138 10.808l-18.686.178-.788-1.446a3 3 0 0 0-3-3h-67.265a3 3 0 0 0-3 3V367a3 3 0 0 0 3 3h67.265a3 3 0 0 0 3-3l3.5-120.883c0-22.825 14.951-41.829 37.712-41.829s41.212 18.504 41.212 41.329V367a3 3 0 0 0 3 3h67.265a3 3 0 0 0 3-3" class="secondary"/><path fill-opacity=".5" d="M-92.345-111.73h32v223.46h-32a3 3 0 0 1-3-3v-217.46a3 3 0 0 1 3-3m187.69 99.076V111.73h-32a3 3 0 0 1-3-3V-12.654c0-16.55-9.701-30.828-23.712-37.427a41 41 0 0 1 17.5-3.901c22.761 0 41.212 18.503 41.212 41.328" class="secondary" style="mix-blend-mode:multiply" transform="translate(259.375 258.25)"/></g><path fill="none" stroke="#000" stroke-linejoin="round" stroke-width="10.5" d="M114.477 115V-35.699C114.477-79.496 79.073-115 35.4-115a87.7 87.7 0 0 0-54.888 19.308l-21.724 17.428v-30.196h-73.265V115h73.265V-9.383c0-22.825 18.451-41.329 41.212-41.329S41.212-32.208 41.212-9.383V115z" class="primary" style="display:block" transform="translate(278.5 255)"/></g><g mask="url(#E)" style="display:none"><path d="M49.409 145a3 3 0 0 0-3 3v219a3 3 0 0 0 3 3h69a3 3 0 0 0 3-3V148a3 3 0 0 0-3-3z" class="secondary"/><path fill-opacity=".5" d="M-14.5-112.5h32v225h-32a3 3 0 0 1-3-3v-219a3 3 0 0 1 3-3" class="secondary" style="mix-blend-mode:multiply" transform="translate(63.909 257.5)"/></g><path fill="none" stroke="#000" stroke-linejoin="round" stroke-width="10.5" d="M37.5-112.5h-75v225h75z" class="primary" style="display:none" transform="translate(83.909 257.5)"/></g><g clip-path="url(#F)" style="display:none"><g style="display:none"><path class="secondary"/><path class="secondary" style="mix-blend-mode:multiply"/></g><path fill="none" class="primary" style="display:none"/><g style="display:none"><path class="secondary"/><path class="secondary" style="mix-blend-mode:multiply"/></g><path fill="none" class="primary" style="display:none"/><g style="display:none"><path class="secondary"/><path class="secondary" style="mix-blend-mode:multiply"/></g><path fill="none" class="primary" style="display:none"/></g><g clip-path="url(#G)" style="display:none"><g mask="url(#H)" style="display:none"><path class="secondary"/><path class="secondary" style="mix-blend-mode:multiply"/></g><path fill="none" class="primary" style="display:none"/><g clip-path="url(#I)" style="display:none"><g mask="url(#J)" style="display:none"><path class="secondary"/><path class="secondary" style="mix-blend-mode:multiply"/></g><path fill="none" class="primary" style="display:none"/></g><g style="display:none"><path class="secondary"/><path class="secondary" style="mix-blend-mode:multiply"/></g><path fill="none" class="primary" style="display:none"/></g></g></svg>