<svg xmlns="http://www.w3.org/2000/svg" width="430" height="430" style="width:100%;height:100%;transform:translate3d(0,0,0);content-visibility:visible" viewBox="0 0 430 430"><defs><clipPath id="k"><path d="M0 0h430v430H0z"/></clipPath><clipPath id="u"><path d="M0 0h430v430H0z"/></clipPath><clipPath id="o"><path d="M0 0h430v430H0z"/></clipPath><clipPath id="n"><path d="M0 0h430v430H0z"/></clipPath><clipPath id="m"><path d="M0 0h430v430H0z"/></clipPath><clipPath id="l"><path d="M0 0h430v430H0z"/></clipPath><filter id="a" width="100%" height="100%" x="0%" y="0%" filterUnits="objectBoundingBox"><feComponentTransfer in="SourceGraphic"><feFuncA tableValues="1.0 0.0" type="table"/></feComponentTransfer></filter><filter id="c" width="100%" height="100%" x="0%" y="0%" filterUnits="objectBoundingBox"><feComponentTransfer in="SourceGraphic"><feFuncA tableValues="1.0 0.0" type="table"/></feComponentTransfer></filter><filter id="e" width="100%" height="100%" x="0%" y="0%" filterUnits="objectBoundingBox"><feComponentTransfer in="SourceGraphic"><feFuncA tableValues="1.0 0.0" type="table"/></feComponentTransfer></filter><filter id="g" width="100%" height="100%" x="0%" y="0%" filterUnits="objectBoundingBox"><feComponentTransfer in="SourceGraphic"><feFuncA tableValues="1.0 0.0" type="table"/></feComponentTransfer></filter><filter id="i" width="100%" height="100%" x="0%" y="0%" filterUnits="objectBoundingBox"><feComponentTransfer in="SourceGraphic"><feFuncA tableValues="1.0 0.0" type="table"/></feComponentTransfer></filter><path id="f" style="display:none"/><path id="b" fill="#3A3347" d="m87.004 146-219-292h45l219 292z" style="display:block" transform="translate(214.996 215)"/><path id="d" style="display:none"/><path id="h" style="display:none"/><path id="j" fill="#3A3347" d="m87.004 146-219-292h45l219 292z" class="primary" style="display:none" transform="translate(214.996 215)"/><mask id="t" mask-type="alpha"><g filter="url(#a)"><path fill="#fff" d="M0 0h430v430H0z" opacity="0"/><use xmlns:a0="http://www.w3.org/1999/xlink" a0:href="#b"/></g></mask><mask id="s" mask-type="alpha"><g filter="url(#c)"><path fill="#fff" d="M0 0h430v430H0z" opacity="0"/><use xmlns:a1="http://www.w3.org/1999/xlink" a1:href="#d"/></g></mask><mask id="r" mask-type="alpha"><g filter="url(#e)"><path fill="#fff" d="M0 0h430v430H0z" opacity="0"/><use xmlns:a2="http://www.w3.org/1999/xlink" a2:href="#f"/></g></mask><mask id="q" mask-type="alpha"><g filter="url(#g)"><path fill="#fff" d="M0 0h430v430H0z" opacity="0"/><use xmlns:a3="http://www.w3.org/1999/xlink" a3:href="#h"/></g></mask><mask id="p" mask-type="alpha"><g filter="url(#i)"><path fill="#fff" d="M0 0h430v430H0z" opacity="0"/><use xmlns:a4="http://www.w3.org/1999/xlink" a4:href="#j"/></g></mask></defs><g clip-path="url(#k)"><g clip-path="url(#l)" style="display:none"><g style="display:none"><path class="tertiary"/><path class="tertiary" style="mix-blend-mode:multiply"/></g><path fill="none" class="primary" style="display:none"/><g style="display:none"><path class="secondary"/><path fill="none" class="primary"/><path class="secondary"/><path class="secondary" style="mix-blend-mode:multiply"/><path fill="none" class="primary"/></g><g style="display:none"><path class="secondary"/><path class="secondary" style="mix-blend-mode:multiply"/><path fill="none" class="primary"/></g></g><g clip-path="url(#m)" style="display:none"><g style="display:none"><path class="tertiary"/><path class="tertiary" style="mix-blend-mode:multiply"/></g><path fill="none" class="primary" style="display:none"/><g style="display:none"><path class="secondary"/><path fill="none" class="primary"/><path class="secondary"/><path class="secondary" style="mix-blend-mode:multiply"/><path fill="none" class="primary"/></g><g style="display:none"><path class="secondary"/><path class="secondary" style="mix-blend-mode:multiply"/><path fill="none" class="primary"/></g></g><g clip-path="url(#n)" style="display:none"><g style="display:none"><path class="secondary"/><path fill="none" class="primary"/><path class="secondary"/><path class="secondary" style="mix-blend-mode:multiply"/><path fill="none" class="primary"/></g><g style="display:none"><path class="secondary"/><path class="secondary" style="mix-blend-mode:multiply"/><path fill="none" class="primary"/></g><g style="display:none"><path class="secondary"/><path fill="none" class="primary"/><path class="secondary"/><path class="secondary" style="mix-blend-mode:multiply"/><path fill="none" class="primary"/></g><g style="display:none"><path class="secondary"/><path class="secondary" style="mix-blend-mode:multiply"/><path fill="none" class="primary"/></g></g><g clip-path="url(#o)" style="display:block"><g style="display:none"><path d="M365.979 49.879 236.082 179.776l12.122 16.162L389.142 55l.874-.854c1.923-1.88.593-5.146-2.096-5.146H368.1c-.796 0-1.558.316-2.121.879M181.796 234.062 40.858 375l-.873.845c-1.936 1.876-.609 5.155 2.087 5.155h19.827a3 3 0 0 0 2.122-.879l129.897-129.897z" class="secondary"/><path fill-opacity=".5" d="M4.635 35.224-7.487 19.062-148.425 160l-.873.845c-1.936 1.876-.609 5.155 2.087 5.155h19.827a3 3 0 0 0 2.122-.879z" class="secondary" style="mix-blend-mode:multiply" transform="translate(189.308 215)"/></g><g style="display:none"><path d="M365.979 49.879 236.082 179.776l12.122 16.162L389.142 55l.874-.854c1.923-1.88.593-5.146-2.096-5.146H368.1c-.796 0-1.558.316-2.121.879M181.796 234.062 40.858 375l-.873.845c-1.936 1.876-.609 5.155 2.087 5.155h19.827a3 3 0 0 0 2.122-.879l129.897-129.897z" class="secondary"/><path fill-opacity=".5" d="M4.635 35.224-7.487 19.062-148.425 160l-.873.845c-1.936 1.876-.609 5.155 2.087 5.155h19.827a3 3 0 0 0 2.122-.879z" class="secondary" style="mix-blend-mode:multiply" transform="translate(189.308 215)"/></g><g mask="url(#p)" style="display:none"><path d="M63.463 364.578 365.492 61.849h-.5L63.713 364.577zm302.379-314.18a3 3 0 0 1 2.4-1.2l18.75-.148c2.472 0 3.883 2.822 2.4 4.8l-325 325.749a3 3 0 0 1-2.4 1.2l-19.5.048c-2.472 0-3.883-2.822-2.4-4.8z" class="secondary"/><path fill-opacity=".5" d="M124.254 164.5a3 3 0 0 0 2.4 1.2l20.25.049-20.096-.395h-.5L-11.701 27.995l-19.33-47.135-139.815-139.859-4-4.001-4.25-2.5-19.25-.549c-2.472 0-3.883 2.822-2.4 4.8z" class="secondary" style="mix-blend-mode:multiply" transform="matrix(1 0 0 -1 240.684 215)"/></g><path fill="none" stroke="#000" stroke-linecap="round" stroke-linejoin="round" stroke-width="10.5" d="M365.979 49.879 236.082 179.776l12.122 16.162L389.142 55l.874-.854c1.923-1.88.593-5.146-2.096-5.146H368.1c-.796 0-1.558.316-2.121.879M181.796 234.062 40.858 375l-.873.845c-1.936 1.876-.609 5.155 2.087 5.155h19.827a3 3 0 0 0 2.122-.879l129.897-129.897z" class="primary" style="display:none"/><g style="display:none"><path d="M302 361 83 69h45l219 292zM138.9 50.2a3 3 0 0 0-2.4-1.2H49c-2.472 0-3.883 2.822-2.4 4.8l244.5 326a3 3 0 0 0 2.4 1.2H381c2.472 0 3.883-2.822 2.4-4.8z" class="secondary"/><path fill-opacity=".5" d="M101.817 164.8a3 3 0 0 0 2.4 1.2h46l-15-20h-22.5l-219-292h22.5l-15-20h-41.5c-2.472 0-3.883 2.822-2.4 4.8z" class="secondary" style="mix-blend-mode:multiply" transform="translate(189.308 215)"/></g><path fill="none" stroke="#000" stroke-linecap="round" stroke-linejoin="round" stroke-width="10.5" d="m87.004 146-219-292h45l219 292zm-163.1-310.8a3 3 0 0 0-2.4-1.2h-87.5c-2.472 0-3.883 2.822-2.4 4.8l244.5 326a3 3 0 0 0 2.4 1.2h87.5c2.472 0 3.883-2.822 2.4-4.8z" class="primary" style="display:none" transform="translate(214.996 215)"/><g mask="url(#q)" style="display:none"><path class="secondary"/><path class="secondary" style="mix-blend-mode:multiply"/><path fill="none" class="primary"/><path fill="none" class="primary"/></g><g mask="url(#r)" style="display:none"><path class="secondary"/><path class="secondary" style="mix-blend-mode:multiply"/></g><g mask="url(#s)" style="display:none"><path fill="none" class="primary"/></g><g mask="url(#t)" style="display:block"><path d="M65.588 365.703 365.867 65.474l-.062.062L65.838 365.702zM365.842 50.398a3 3 0 0 1 2.4-1.2l18.75-.148c2.472 0 3.883 2.822 2.4 4.8l-325 325.749a3 3 0 0 1-2.4 1.2l-19.5.048c-2.472 0-3.883-2.822-2.4-4.8z" class="secondary"/><path fill-opacity=".5" d="M124.254 164.5a3 3 0 0 0 2.4 1.2l20.25.049-21.221-16.27h-.5l-300.029-300.353v-.001l-14-15.375-9.5.201c-2.472 0-3.883 2.822-2.4 4.8z" class="secondary" style="mix-blend-mode:multiply" transform="matrix(1 0 0 -1 240.684 215)"/><path fill="none" stroke="#000" stroke-linecap="round" stroke-linejoin="round" stroke-width="10.5" d="M365.842 50.398a3 3 0 0 1 2.4-1.2l18.75-.148c2.472 0 3.883 2.822 2.4 4.8l-325 325.749a3 3 0 0 1-2.4 1.2l-19.5.048c-2.472 0-3.883-2.822-2.4-4.8z" class="primary"/><path fill="none" d="M65.588 365.703 365.867 65.474l-.062.062L65.838 365.702z" class="primary"/></g><g mask="url(#r)" style="display:block"><path d="M302 361 83 69h45l219 292zM138.9 50.2a3 3 0 0 0-2.4-1.2H49c-2.472 0-3.883 2.822-2.4 4.8l244.5 326a3 3 0 0 0 2.4 1.2H381c2.472 0 3.883-2.822 2.4-4.8z" class="secondary"/><path fill-opacity=".5" d="M101.817 164.8a3 3 0 0 0 2.4 1.2h46l-15-20h-22.5l-219-292h22.5l-15-20h-41.5c-2.472 0-3.883 2.822-2.4 4.8z" class="secondary" style="mix-blend-mode:multiply" transform="translate(189.308 215)"/><path fill="none" stroke="#000" stroke-linecap="round" stroke-linejoin="round" stroke-width="10.5" d="M302 361 83 69h45l219 292zM138.9 50.2a3 3 0 0 0-2.4-1.2H49c-2.472 0-3.883 2.822-2.4 4.8l244.5 326a3 3 0 0 0 2.4 1.2H381c2.472 0 3.883-2.822 2.4-4.8z" class="primary"/></g><g style="display:block"><path d="M181.796 234.062 40.858 375l-.873.845c-1.936 1.876-.609 5.155 2.087 5.155h19.827a3 3 0 0 0 2.122-.879l129.897-129.897z" class="secondary"/><path fill-opacity=".5" d="M4.635 35.224-7.487 19.062-148.425 160l-.873.845c-1.936 1.876-.609 5.155 2.087 5.155h19.827a3 3 0 0 0 2.122-.879z" class="secondary" style="mix-blend-mode:multiply" transform="translate(189.308 215)"/><path fill="none" stroke="#000" stroke-linecap="round" stroke-linejoin="round" stroke-width="10.5" d="M181.796 234.062 40.858 375l-.873.845c-1.936 1.876-.609 5.155 2.087 5.155h19.827a3 3 0 0 0 2.122-.879l129.897-129.897z" class="primary"/></g><g style="display:block"><path d="M365.979 49.879 236.082 179.776l12.122 16.162L389.142 55l.874-.854c1.923-1.88.593-5.146-2.096-5.146H368.1c-.796 0-1.558.316-2.121.879" class="secondary"/><path fill="none" stroke="#000" stroke-linecap="round" stroke-linejoin="round" stroke-width="10.5" d="M365.979 49.879 236.082 179.776l12.122 16.162L389.142 55l.874-.854c1.923-1.88.593-5.146-2.096-5.146H368.1c-.796 0-1.558.316-2.121.879" class="primary"/></g></g><g clip-path="url(#u)" style="display:none"><g style="display:none"><path class="secondary"/><path class="secondary"/><path class="secondary" style="mix-blend-mode:multiply"/></g><g style="display:none"><path class="secondary"/><path class="secondary" style="mix-blend-mode:multiply"/></g><path fill="none" class="primary" style="display:none"/><path fill="none" class="primary" style="display:none"/><path fill="none" class="primary" style="display:none"/></g></g></svg>