<svg xmlns="http://www.w3.org/2000/svg" width="430" height="430" style="width:100%;height:100%;transform:translate3d(0,0,0);content-visibility:visible" viewBox="0 0 430 430"><defs><mask id="K" mask-type="alpha"><use xmlns:a0="http://www.w3.org/1999/xlink" a0:href="#a"/></mask><mask id="J" mask-type="alpha"><use xmlns:a1="http://www.w3.org/1999/xlink" a1:href="#b"/></mask><mask id="G" mask-type="alpha"><use xmlns:a2="http://www.w3.org/1999/xlink" a2:href="#c"/></mask><mask id="F" mask-type="alpha"><use xmlns:a3="http://www.w3.org/1999/xlink" a3:href="#d"/></mask><mask id="D" mask-type="alpha"><use xmlns:a4="http://www.w3.org/1999/xlink" a4:href="#e"/></mask><mask id="C" mask-type="alpha"><g filter="url(#f)"><path fill="#fff" d="M0 0h430v430H0z" opacity="0"/><use xmlns:a5="http://www.w3.org/1999/xlink" a5:href="#g"/></g></mask><mask id="A" mask-type="alpha"><use xmlns:a6="http://www.w3.org/1999/xlink" a6:href="#h"/></mask><mask id="z" mask-type="alpha"><use xmlns:a7="http://www.w3.org/1999/xlink" a7:href="#i"/></mask><mask id="w" mask-type="alpha"><use xmlns:a8="http://www.w3.org/1999/xlink" a8:href="#j"/></mask><mask id="v" mask-type="alpha"><g filter="url(#k)"><path fill="#fff" d="M0 0h430v430H0z" opacity="0"/><use xmlns:a9="http://www.w3.org/1999/xlink" a9:href="#l"/></g></mask><mask id="t" mask-type="alpha"><use xmlns:a10="http://www.w3.org/1999/xlink" a10:href="#m"/></mask><mask id="r" mask-type="alpha"><use xmlns:a11="http://www.w3.org/1999/xlink" a11:href="#n"/></mask><clipPath id="o"><path d="M0 0h430v430H0z"/></clipPath><clipPath id="I"><path d="M0 0h430v430H0z"/></clipPath><clipPath id="H"><path d="M0 0h430v430H0z"/></clipPath><clipPath id="E"><path d="M0 0h430v430H0z"/></clipPath><clipPath id="x"><path d="M0 0h430v430H0z"/></clipPath><clipPath id="B"><path d="M0 0h430v430H0z"/></clipPath><clipPath id="y"><path d="M0 0h430v430H0z"/></clipPath><clipPath id="p"><path d="M0 0h430v430H0z"/></clipPath><clipPath id="u"><path d="M0 0h430v430H0z"/></clipPath><clipPath id="q"><path d="M0 0h430v430H0z"/></clipPath><path id="a" style="display:none"/><path id="b" style="display:none"/><path id="c" style="display:none"/><path id="d" style="display:none"/><path id="g" class="primary" style="display:none"/><path id="i" class="primary" style="display:none"/><path id="l" class="primary" style="display:none"/><path id="n" class="primary" style="display:none"/><g id="e" style="display:none"><path/><path/></g><g id="h" style="display:none"><path/><path/></g><g id="j" style="display:none"><path/><path/></g><g id="m" style="display:none"><path/><path/></g><filter id="f" width="100%" height="100%" x="0%" y="0%" filterUnits="objectBoundingBox"><feComponentTransfer in="SourceGraphic"><feFuncA tableValues="1.0 0.0" type="table"/></feComponentTransfer></filter><filter id="k" width="100%" height="100%" x="0%" y="0%" filterUnits="objectBoundingBox"><feComponentTransfer in="SourceGraphic"><feFuncA tableValues="1.0 0.0" type="table"/></feComponentTransfer></filter></defs><g clip-path="url(#o)"><g clip-path="url(#p)" style="display:none"><g style="display:none"><path class="secondary"/><path class="secondary" style="mix-blend-mode:multiply"/></g><path fill="none" class="primary" style="display:none"/><g clip-path="url(#q)" mask="url(#r)" style="display:none"><g style="display:none"><path class="tertiary"/><path class="tertiary"/></g><g mask="url(#t)" style="mix-blend-mode:multiply;display:none"><path class="tertiary"/><path class="tertiary"/></g><g style="display:none"><path class="tertiary"/><path class="tertiary" style="mix-blend-mode:multiply"/></g><path fill="none" class="primary" style="display:none"/><path fill="none" class="primary" style="display:none"/></g><g clip-path="url(#u)" mask="url(#v)" style="display:none"><path class="secondary" style="display:none"/><g mask="url(#w)" style="mix-blend-mode:multiply;display:none"><path class="secondary"/></g><g style="display:none"><path class="secondary"/><path class="secondary" style="mix-blend-mode:multiply"/></g><path fill="none" class="primary" style="display:none"/><path fill="none" class="primary" style="display:none"/></g></g><g clip-path="url(#x)" style="display:none"><g style="display:none"><path class="secondary"/><path class="secondary" style="mix-blend-mode:multiply"/></g><g clip-path="url(#y)" mask="url(#z)" style="display:none"><g style="display:none"><path class="tertiary"/><path class="tertiary"/></g><g mask="url(#A)" style="mix-blend-mode:multiply;display:none"><path class="tertiary"/><path class="tertiary"/></g><g style="display:none"><path class="tertiary"/><path class="tertiary" style="mix-blend-mode:multiply"/></g><path fill="none" class="primary" style="display:none"/><path fill="none" class="primary" style="display:none"/></g><g clip-path="url(#B)" mask="url(#C)" style="display:none"><path class="secondary" style="display:none"/><g mask="url(#D)" style="mix-blend-mode:multiply;display:none"><path class="secondary"/></g><g style="display:none"><path class="secondary"/><path class="secondary" style="mix-blend-mode:multiply"/></g><path fill="none" class="primary" style="display:none"/><path fill="none" class="primary" style="display:none"/></g><path fill="none" class="primary" style="display:none"/></g><g clip-path="url(#E)" style="display:none"><path class="secondary" style="display:none"/><g mask="url(#F)" style="mix-blend-mode:multiply;display:none"><path class="secondary"/></g><path fill="none" class="primary" style="display:none"/><path class="secondary" style="display:none"/><g mask="url(#G)" style="mix-blend-mode:multiply;display:none"><path class="secondary"/></g><path fill="none" class="primary" style="display:none"/><path class="secondary" style="display:none"/><path class="secondary" style="mix-blend-mode:multiply;display:none"/><path class="secondary" style="display:none"/><path class="secondary" style="mix-blend-mode:multiply;display:none"/><path fill="none" class="primary" style="display:none"/><path fill="none" class="primary" style="display:none"/></g><g clip-path="url(#H)" style="display:block"><path d="M-147.482 168.781c-.432 2.299 1.817 4.187 4.006 3.362l58.477-22.03C-59.912 164.349-30.905 172.477 0 172.477c95.257 0 172.477-77.22 172.477-172.477S95.257-172.477 0-172.477-172.477-95.257-172.477 0c0 40.146 13.715 77.089 36.717 106.397zm38.348-41.634 5.37-28.574-8.396-10.698C-131.163 63.662-142.477 33.194-142.477 0c0-78.688 63.789-142.477 142.477-142.477S142.477-78.688 142.477 0 78.688 142.477 0 142.477c-25.58 0-49.502-6.715-70.193-18.456l-12.227-6.938z" class="secondary" style="display:block" transform="translate(219.5 209.477)"/><g opacity=".4"><path d="m16.046 124.021-12.227-6.938-26.714 10.064 5.369-28.574-8.395-10.698C-44.924 63.661-56.239 33.194-56.239 0c0-78.688 63.79-142.477 142.478-142.477v-30C-9.018-172.477-86.239-95.257-86.239 0c0 40.146 13.716 77.089 36.718 106.397l-11.722 62.384c-.432 2.299 1.817 4.187 4.006 3.362l58.477-22.03c25.087 14.236 54.094 22.364 84.999 22.364v-30c-25.58 0-49.502-6.715-70.193-18.456" class="secondary" opacity="1" style="mix-blend-mode:multiply;display:block" transform="translate(133.261 209.477)"/></g><path d="M-84.899-63.111c12.918-17.865 25.422-29.683 27.827-26.316 2.474 3.367 8.383 11.612 13.193 18.277a2567 2567 0 0 1 12.368 16.971c1.924 2.611-1.1 9.345-6.734 14.979s-7.696 12.712-4.604 15.804l33.531 33.53 32.569 32.569c2.542 2.542 9.207.069 14.841-5.565s12.162-8.796 14.498-7.078 10.512 7.627 18.208 13.261 16.216 11.819 19.033 13.88-9.276 14.292-27.003 27.347S8.89 86.403-17.907 59.606L-59.683 17.83C-86.48-8.967-97.817-45.246-84.899-63.111" class="secondary" style="display:block" transform="translate(220.252 210)"/><g opacity=".4"><path d="M51.559 33.622c2.352-.339 5.276-1.744 8.154-3.992-2.136.247-5.103 1.696-8.154 3.992M-47.639-89.427l.145.198c-3.999 4.375-8.461 9.878-12.973 16.118-12.918 17.865-1.58 54.144 25.217 80.941L6.526 49.606c23.861 23.861 55.187 35.355 74.28 28.37a253 253 0 0 1-8.545 6.572C54.534 97.603 18.323 86.403-8.474 59.606L-50.25 17.83C-77.047-8.967-88.385-45.246-75.467-63.111s25.423-29.683 27.828-26.316" class="secondary" opacity="1" style="mix-blend-mode:multiply;display:block" transform="translate(210.819 210)"/></g><path fill="none" stroke="#000" stroke-linecap="round" stroke-width="10.5" d="M-147.482 168.781c-.432 2.299 1.817 4.187 4.006 3.362l58.477-22.03C-59.912 164.349-30.905 172.477 0 172.477c95.257 0 172.477-77.22 172.477-172.477S95.257-172.477 0-172.477-172.477-95.257-172.477 0c0 40.146 13.715 77.089 36.717 106.397zm38.348-41.634 5.37-28.574-8.396-10.698C-131.163 63.662-142.477 33.194-142.477 0c0-78.688 63.789-142.477 142.477-142.477S142.477-78.688 142.477 0 78.688 142.477 0 142.477c-25.58 0-49.502-6.715-70.193-18.456l-12.227-6.938z" class="primary" style="display:block" transform="translate(219.5 209.477)"/><path fill="none" stroke="#000" stroke-linecap="round" stroke-linejoin="round" stroke-width="10.5" d="M-84.899-63.111c12.918-17.865 25.422-29.683 27.827-26.316 2.474 3.367 8.383 11.612 13.193 18.277a2567 2567 0 0 1 12.368 16.971c1.924 2.611-1.1 9.345-6.734 14.979s-7.696 12.712-4.604 15.804l33.531 33.53 32.569 32.569c2.542 2.542 9.207.069 14.841-5.565s12.162-8.796 14.498-7.078 10.512 7.627 18.208 13.261 16.216 11.819 19.033 13.88-9.276 14.292-27.003 27.347S8.89 86.403-17.907 59.606L-59.683 17.83C-86.48-8.967-97.817-45.246-84.899-63.111" class="primary" style="display:block" transform="translate(220.252 210)"/></g><g clip-path="url(#I)" style="display:none"><path class="secondary" style="display:none"/><path fill="none" class="primary" style="display:none"/><g mask="url(#J)" style="mix-blend-mode:multiply;display:none"><path class="secondary"/></g><path class="secondary" style="display:none"/><path fill="none" class="primary" style="display:none"/><g mask="url(#K)" style="mix-blend-mode:multiply;display:none"><path class="secondary"/></g></g></g></svg>